<svg width="51" height="54" viewBox="0 0 51 54" fill="none" xmlns="http://www.w3.org/2000/svg">
<path d="M9.50869 37.5243C18.2705 46.0523 31.1622 49.039 34.4634 49.5758C32.2005 33.7441 17.1433 22.5985 1.12586 25.9184C-1.02621 44.7799 17.554 58.8739 34.6974 51.8491C34.6974 51.8355 34.695 51.822 34.695 51.8096C16.506 49.5622 9.50869 37.5256 9.50869 37.5256V37.5243Z" fill="#8BC53F"/>
<path d="M49.8753 25.9184C48.0522 25.5407 46.1658 25.342 44.2319 25.342C37.7282 25.342 31.7472 27.5944 26.9958 31.3635C29.4002 33.601 31.4401 36.2347 33.0219 39.1621C36.7618 37.0146 42.56 33.3924 44.6024 30.4366C42.0457 35.1523 39.015 37.3121 33.8883 40.8973C35.3202 44.0061 36.2536 47.4 36.5681 50.9828C44.5609 46.8854 50.0459 38.4944 50.0459 28.8001C50.0459 27.8239 49.9837 26.8625 49.8765 25.9159L49.8753 25.9184Z" fill="#8BC53F"/>
<path d="M18.8287 16.0341L20.6067 26.5762C21.8984 27.1599 23.139 27.8474 24.3162 28.6261L21.0259 15.5602C23.5033 14.3988 25.0193 10.6569 24.1919 6.71624C23.2755 2.34735 19.8268 -0.610908 16.4878 0.107368C13.15 0.825644 11.188 4.95017 12.1044 9.31783C12.9319 13.2597 15.82 16.0514 18.8287 16.0328V16.0341Z" fill="#8BC53F"/>
<path d="M30.3653 16.2501L27.3018 28.4151C28.4643 27.6684 29.672 27.0168 30.9186 26.4676L32.5613 16.7227C35.291 16.6808 37.3419 13.7089 38.1693 9.76706C38.4399 8.47738 39.0662 4.9909 38.6154 2.80522C38.58 2.63121 38.4289 2.50656 38.2534 2.50656C38.0779 2.50656 37.9281 2.62997 37.8903 2.80399L36.2001 10.8593C36.1635 11.0345 36.0587 11.1876 35.9113 11.2851C35.7638 11.3826 35.5822 11.4171 35.4092 11.3801L35.3714 11.3715C35.0107 11.2937 34.7816 10.9358 34.8572 10.5705L36.5401 2.55469C36.6229 2.15853 36.3743 1.76854 35.9819 1.68461L35.9685 1.68214C35.7809 1.64142 35.5847 1.67844 35.4238 1.78458C35.2629 1.89072 35.1496 2.05733 35.1094 2.24739L33.4265 10.2632C33.3899 10.4384 33.2864 10.5915 33.1377 10.689C32.9902 10.7865 32.8087 10.821 32.6356 10.7828L32.5978 10.7741C32.2384 10.6964 32.0068 10.3385 32.0848 9.97317L33.7665 1.95736C33.8067 1.7673 33.7702 1.5686 33.6654 1.40569C33.5605 1.24279 33.396 1.12801 33.2084 1.08728C32.8099 1.00213 32.4175 1.25883 32.3334 1.6624L30.6542 9.66463C30.6176 9.83988 30.5128 9.99291 30.3653 10.0904C30.2167 10.1879 30.0363 10.2212 29.8633 10.1842L29.8255 10.1756C29.466 10.0978 29.2357 9.73991 29.3125 9.3746L31.01 1.28598C31.0453 1.11814 30.9637 0.947825 30.8114 0.871308C30.659 0.796025 30.475 0.834283 30.3653 0.965103C28.9505 2.65712 28.061 6.07325 27.7563 7.52461C26.9289 11.4665 27.6088 15.027 30.3653 16.2488V16.2501Z" fill="#8BC53F"/>
</svg>
