<svg width="71" height="15" viewBox="0 0 71 15" fill="none" xmlns="http://www.w3.org/2000/svg">
<path d="M11.0358 3.37922C12.3263 4.62201 12.9721 6.19679 12.9721 8.10232C12.9721 10.0078 12.3397 11.6505 11.0735 12.9896C9.80739 14.3286 8.25366 14.9987 6.4099 14.9987C4.70628 14.9987 3.21104 14.4027 1.92663 13.2117C0.642209 12.0207 0 10.4583 0 8.52686C0 6.45349 0.658051 4.759 1.97415 3.44587C3.29025 2.13273 4.78183 1.48851 6.44768 1.51442C8.21588 1.51442 9.74524 2.13643 11.0358 3.37922ZM8.73745 5.46617C8.07574 4.80343 7.27511 4.47145 6.33435 4.47145C5.39358 4.47145 4.6746 4.83182 4.10185 5.5538C3.5291 6.27454 3.24395 7.19645 3.24395 8.31583C3.24395 9.4352 3.5486 10.309 4.15912 10.9717C4.76965 11.6357 5.5459 11.9664 6.48667 11.9664C7.42744 11.9664 8.15617 11.5863 8.78497 10.8261C9.41378 10.0658 9.7294 9.17109 9.7294 8.14057C9.7294 7.01997 9.39915 6.12768 8.73745 5.46494V5.46617Z" fill="#8BC53F"/>
<path d="M14.6306 7.4075C14.605 6.32515 15.1265 5.7846 16.1953 5.7846C17.0093 5.7846 17.4736 6.11288 17.5881 6.76945L17.6454 7.11748C17.8111 6.71761 18.1292 6.38933 18.5996 6.13263C19.07 5.87469 19.5537 5.74634 20.0497 5.74634C21.144 5.74634 21.9898 6.08079 22.5869 6.75093C23.184 7.42107 23.4838 8.38619 23.4838 9.64872C23.4838 9.94492 23.4801 10.3275 23.474 10.7977C23.4679 11.2679 23.4643 11.6703 23.4643 12.0047V13.5314C23.4643 14.4199 22.9049 14.8642 21.785 14.8642C21.3524 14.8642 20.9966 14.7544 20.7163 14.536C20.436 14.3175 20.2971 13.988 20.2971 13.5511C20.2971 13.2808 20.3032 12.7884 20.3166 12.0726C20.33 11.3568 20.3361 10.8335 20.3361 10.4978C20.3361 9.84125 20.263 9.33278 20.1167 8.97117C19.9705 8.6108 19.6744 8.42444 19.2296 8.41086C18.6191 8.39852 18.2121 8.59105 18.0085 8.99092C17.805 9.38955 17.7039 10.0535 17.7039 10.9804L17.7234 13.6276C17.7234 14.0657 17.5735 14.3842 17.2749 14.5841C16.9764 14.784 16.623 14.884 16.216 14.884C15.6944 14.884 15.2935 14.7902 15.0144 14.6038C14.7341 14.4175 14.5952 14.0731 14.5952 13.5696C14.5952 13.1574 14.6074 12.3651 14.633 11.1939C14.6586 10.0214 14.6647 9.10693 14.6525 8.45036L14.633 7.4075H14.6306Z" fill="#8BC53F"/>
<path d="M25.7043 3.60138C25.3801 3.20151 25.2693 2.71896 25.3704 2.15248C25.4472 1.71436 25.6726 1.37374 26.0479 1.12814C26.4233 0.883778 26.8084 0.761597 27.202 0.761597C27.7613 0.761597 28.1976 0.929442 28.5083 1.2639C28.8203 1.59835 28.9763 2.01056 28.9763 2.50051C28.9763 3.05465 28.7923 3.47673 28.423 3.76552C28.0538 4.05554 27.5895 4.19994 27.0301 4.19994C26.4708 4.19994 26.0284 4.00001 25.7043 3.60138ZM26.0187 6.08449C26.3234 5.87221 26.6731 5.76608 27.0679 5.76608C28.1366 5.76608 28.6765 6.19062 28.6899 7.04095V11.3099L28.7094 13.5313C28.7216 13.9818 28.5753 14.3237 28.2707 14.5557C27.966 14.7877 27.5834 14.9037 27.1264 14.9037C26.6694 14.9037 26.3063 14.8038 26.0004 14.6038C25.6958 14.4039 25.5422 14.1114 25.5422 13.7251V7.07921C25.5544 6.62875 25.714 6.29676 26.0187 6.08449Z" fill="#8BC53F"/>
<path d="M31.0551 5.53283L30.9784 3.29161C30.9528 2.84115 31.0771 2.45733 31.3501 2.14262C31.623 1.82668 31.9703 1.66994 32.3895 1.66994H33.2669C35.8102 1.66994 37.2152 1.66377 37.4833 1.65019C37.738 1.63785 38.0744 1.63045 38.4948 1.63045C38.8128 1.63045 39.0797 1.74645 39.2966 1.97847C39.5123 2.2105 39.6208 2.51903 39.6208 2.90532C39.6208 3.87166 39.2393 4.37396 38.4765 4.41222H34.2223V7.29149H35.6907L37.9232 7.25323C38.2791 7.24089 38.5691 7.36555 38.7909 7.62965C39.0139 7.89376 39.1248 8.24426 39.1248 8.68238C39.1248 9.64872 38.6483 10.1313 37.6941 10.1313C37.4906 10.1313 37.1311 10.1251 36.6169 10.1115C36.1026 10.098 35.7358 10.0918 35.5201 10.0918H34.1468V11.5604L34.1663 13.4734C34.1663 14.4138 33.6581 14.884 32.6406 14.884C32.0434 14.884 31.6169 14.768 31.3622 14.536C31.1075 14.3039 30.9808 13.9176 30.9808 13.3771C30.9808 13.3253 30.9869 13.1327 31.0003 12.797C31.0125 12.4626 31.0198 12.1985 31.0198 12.0047C31.0198 11.7468 31.0235 11.4864 31.0296 11.2223C31.0356 10.9582 31.0393 10.6916 31.0393 10.4201L31.0588 5.53283H31.0551Z" fill="#8BC53F"/>
<path d="M46.0099 5.80434C47.1932 6.01045 48.0925 6.53496 48.7091 7.37912C49.3257 8.22205 49.634 9.19826 49.634 10.3065C49.634 11.6592 49.1832 12.7724 48.2802 13.6486C47.3772 14.5249 46.2329 14.9617 44.8461 14.9617C43.5739 14.9617 42.4905 14.5495 41.5936 13.7251C40.6967 12.9007 40.2483 11.8517 40.2483 10.5756C40.2483 9.12051 40.6931 7.95794 41.5839 7.08786C42.4747 6.21902 43.7079 5.76485 45.2848 5.72536C45.5517 5.72536 45.793 5.75127 46.0099 5.80311V5.80434ZM46.1049 8.99216C45.8125 8.60587 45.4505 8.41951 45.0179 8.43186C44.4842 8.4442 44.0711 8.63426 43.7786 9.00203C43.4861 9.36858 43.3399 9.88075 43.3399 10.5373C43.3399 11.0273 43.4861 11.4419 43.7786 11.7838C44.0711 12.1244 44.4147 12.296 44.8083 12.296C45.3043 12.296 45.7174 12.1022 46.0477 11.7159C46.3779 11.3296 46.5436 10.8335 46.5436 10.2288C46.5436 9.79066 46.3974 9.37845 46.1049 8.99216Z" fill="#8BC53F"/>
<path d="M56.5778 5.80434C57.761 6.01045 58.6604 6.53496 59.277 7.37912C59.8936 8.22205 60.2019 9.19826 60.2019 10.3065C60.2019 11.6592 59.751 12.7724 58.848 13.6486C57.945 14.5249 56.8008 14.9617 55.414 14.9617C54.1418 14.9617 53.0584 14.5495 52.1615 13.7251C51.2646 12.9007 50.8162 11.8517 50.8162 10.5756C50.8162 9.12051 51.261 7.95794 52.1518 7.08786C53.0426 6.21902 54.2758 5.76485 55.8527 5.72536C56.1196 5.72536 56.3608 5.75127 56.5778 5.80311V5.80434ZM56.6728 8.99216C56.3803 8.60587 56.0184 8.41951 55.5858 8.43186C55.0521 8.4442 54.6389 8.63426 54.3465 9.00203C54.054 9.36858 53.9078 9.88075 53.9078 10.5373C53.9078 11.0273 54.054 11.4419 54.3465 11.7838C54.6389 12.1244 54.9826 12.296 55.3762 12.296C55.8722 12.296 56.2853 12.1022 56.6155 11.7159C56.9458 11.3296 57.1115 10.8335 57.1115 10.2288C57.1115 9.79066 56.9653 9.37845 56.6728 8.99216Z" fill="#8BC53F"/>
<path d="M70.9416 6.13263C70.9416 6.60901 70.9379 7.31741 70.9318 8.25783C70.9257 9.19826 70.9221 9.93257 70.9221 10.4608C70.9221 10.5768 70.9343 11.6258 70.9599 13.6103C70.9599 14.0349 70.8258 14.3545 70.5589 14.5668C70.2921 14.7791 69.9289 14.8852 69.4719 14.8852C68.7724 14.8852 68.3398 14.6211 68.1753 14.0929L68.0413 13.6486C67.4819 14.5113 66.6874 14.9432 65.6565 14.9432C64.3087 14.9432 63.2558 14.5211 62.499 13.6782C61.7423 12.8341 61.3645 11.8073 61.3645 10.5966C61.3645 9.23158 61.7971 8.08506 62.6611 7.15821C63.5263 6.23136 64.6255 5.76732 65.9611 5.76732C66.763 5.76732 67.3796 6.02526 67.811 6.5399V2.30923C67.811 1.79459 67.9474 1.40089 68.2216 1.13062C68.4946 0.860336 68.8675 0.724579 69.3379 0.724579C69.8716 0.724579 70.2847 0.836889 70.5772 1.06274C70.8697 1.28859 71.0098 1.665 70.9964 2.19322L70.9391 6.13386L70.9416 6.13263ZM64.9899 11.7542C65.3079 12.1022 65.6954 12.2762 66.1536 12.2762C66.6752 12.2762 67.1017 12.1059 67.432 11.7641C67.7622 11.4222 67.9279 10.9693 67.9279 10.4016C67.9279 9.78324 67.7695 9.30686 67.4515 8.9724C67.1334 8.63795 66.7325 8.47011 66.2499 8.47011C65.7284 8.47011 65.3092 8.64659 64.9911 9.0008C64.673 9.355 64.5146 9.85359 64.5146 10.4978C64.5146 10.9878 64.673 11.4062 64.9911 11.7529L64.9899 11.7542Z" fill="#8BC53F"/>
</svg>
