<svg width="23" height="27" viewBox="0 0 23 27" fill="none" xmlns="http://www.w3.org/2000/svg">
<g clip-path="url(#clip0_1583_4472)">
<path d="M11.4934 27C8.34613 27 5.19891 27 2.05271 27C1.55508 27 1.08641 26.907 0.691192 26.5708C0.279424 26.2219 0.0507797 25.7736 0.0218111 25.2271C0.00629222 24.9332 0.00629222 24.6393 0.00629222 24.3443C0.00629222 19.1238 0.00629222 13.9044 0.00525763 8.6839C0.00525763 8.45977 -0.00198451 8.23564 0.00422304 8.01151C0.0114652 7.70281 0.140789 7.43533 0.287701 7.1742C1.36575 5.25537 2.44586 3.33337 3.52701 1.41243C3.63357 1.22213 3.75151 1.03818 3.85808 0.84788C4.16225 0.29919 4.63195 0.0348878 5.23925 0.00422883C5.29926 0.00105721 5.35927 0.00211441 5.41927 0.00211441C9.48315 0.00211441 13.545 0.00528603 17.6078 0C18.3237 0 18.8421 0.294961 19.2 0.935628C20.0567 2.46752 20.9319 3.98778 21.7969 5.51439C22.1393 6.11805 22.4735 6.72595 22.8159 7.32856C22.938 7.54317 22.9991 7.76941 22.998 8.01785C22.9949 8.77376 22.998 9.52966 22.998 10.2856C22.998 15.0525 22.998 19.8205 22.9959 24.5875C22.9959 24.8803 22.9959 25.1784 22.9515 25.4671C22.8211 26.2927 22.1248 26.9218 21.3065 26.9746C21.0706 26.9905 20.8347 26.9989 20.5978 26.9989C17.5623 27.0011 14.5268 27 11.4923 26.9989L11.4934 27ZM1.54163 8.28216C1.54163 8.40268 1.54163 8.50311 1.54163 8.60355C1.54163 13.9636 1.54163 19.3236 1.54163 24.6837C1.54163 24.7978 1.54163 24.912 1.54473 25.0262C1.55197 25.3391 1.63267 25.4174 1.94305 25.4174C8.24474 25.4174 14.5464 25.4174 20.8481 25.4174C20.9557 25.4174 21.0633 25.4205 21.1709 25.4174C21.3582 25.411 21.4544 25.3148 21.4596 25.1213C21.4648 24.9501 21.4616 24.7788 21.4616 24.6075C21.4616 19.2433 21.4616 13.879 21.4616 8.51474C21.4616 8.43757 21.4616 8.36039 21.4616 8.28216H1.54163ZM2.32895 6.68789C2.37964 6.69212 2.42103 6.69846 2.46138 6.69846C5.18235 6.6974 7.90229 6.69529 10.6233 6.69529C10.7185 6.69529 10.7578 6.67837 10.7578 6.56631C10.7598 4.96781 10.766 3.36826 10.7723 1.76976C10.7723 1.71056 10.7723 1.65136 10.7723 1.58475C10.6978 1.58475 10.6471 1.58475 10.5953 1.58475C8.86343 1.58475 7.13152 1.58687 5.39962 1.58052C5.25064 1.58052 5.17511 1.62916 5.10269 1.75919C4.34537 3.11982 3.57977 4.47727 2.81624 5.83472C2.65898 6.11488 2.49759 6.39293 2.32998 6.68683L2.32895 6.68789ZM20.6712 6.69529C20.6412 6.63503 20.6267 6.60014 20.6081 6.56842C19.6884 4.93293 18.7696 3.29743 17.8468 1.66404C17.8251 1.62493 17.7619 1.58792 17.7185 1.58792C15.9483 1.5837 14.1771 1.58581 12.4069 1.58264C12.3117 1.58264 12.2931 1.61964 12.2931 1.70633C12.2962 3.3228 12.2983 4.93927 12.2962 6.55574C12.2962 6.66252 12.321 6.69952 12.4317 6.69952C15.0917 6.69635 17.7526 6.69635 20.4126 6.69529C20.4891 6.69529 20.5657 6.69529 20.6723 6.69529H20.6712Z" fill="white"/>
<path d="M1.54156 8.28217H21.4616C21.4616 8.3604 21.4616 8.43758 21.4616 8.51475C21.4616 13.879 21.4616 19.2433 21.4616 24.6075C21.4616 24.7788 21.4637 24.9501 21.4595 25.1214C21.4543 25.3148 21.3592 25.411 21.1709 25.4174C21.0633 25.4216 20.9557 25.4174 20.8481 25.4174C14.5464 25.4174 8.24468 25.4174 1.94299 25.4174C1.63261 25.4174 1.55191 25.3391 1.54467 25.0262C1.54157 24.912 1.54156 24.7978 1.54156 24.6837C1.54156 19.3236 1.54156 13.9636 1.54156 8.60356C1.54156 8.50312 1.54156 8.40269 1.54156 8.28217ZM10.4649 17.8044C10.4297 17.76 10.4111 17.7304 10.3873 17.705C9.96624 17.2716 9.5493 16.835 9.12202 16.4079C8.89647 16.1837 8.62024 16.1256 8.32331 16.2387C8.02638 16.3518 7.85878 16.577 7.82878 16.9005C7.80498 17.1564 7.88878 17.3741 8.06673 17.556C8.48678 17.9842 8.90579 18.4134 9.32583 18.8415C9.53585 19.0551 9.73967 19.2771 9.959 19.4801C10.2487 19.7476 10.646 19.7433 10.946 19.4864C11.0019 19.4389 11.0536 19.3849 11.1053 19.3321C12.2392 18.1734 13.3721 17.0147 14.505 15.8549C14.7026 15.653 14.9126 15.4606 15.0854 15.2386C15.373 14.8675 15.2385 14.322 14.8278 14.1021C14.5164 13.9361 14.1688 14.0091 13.8801 14.304C12.9314 15.2735 11.9837 16.2429 11.036 17.2124C10.8508 17.4016 10.6687 17.593 10.4649 17.8034V17.8044Z" fill="#8BC53F"/>
<path d="M2.32782 6.68787C2.49542 6.39396 2.65682 6.11592 2.81407 5.83576C3.5776 4.47831 4.34217 3.12085 5.10052 1.76023C5.17294 1.63019 5.24847 1.5805 5.39745 1.58156C7.12935 1.5879 8.86126 1.58579 10.5932 1.58579C10.6449 1.58579 10.6956 1.58579 10.7701 1.58579C10.7701 1.65239 10.7701 1.7116 10.7701 1.7708C10.7649 3.3693 10.7577 4.96885 10.7556 6.56735C10.7556 6.67941 10.7173 6.69633 10.6211 6.69633C7.90013 6.69633 5.18019 6.69844 2.45921 6.6995C2.41886 6.6995 2.37748 6.69315 2.32678 6.68892L2.32782 6.68787Z" fill="#8BC53F"/>
<path d="M20.6701 6.69529C20.5646 6.69529 20.488 6.69529 20.4104 6.69529C17.7505 6.69529 15.0895 6.69529 12.4296 6.69952C12.3189 6.69952 12.2941 6.66252 12.2941 6.55574C12.2961 4.93927 12.2941 3.3228 12.291 1.70633C12.291 1.61859 12.3096 1.58264 12.4048 1.58264C14.1749 1.58476 15.9462 1.5837 17.7164 1.58793C17.7598 1.58793 17.8229 1.62493 17.8446 1.66405C18.7675 3.29743 19.6872 4.93293 20.606 6.56843C20.6246 6.6012 20.6391 6.63609 20.6691 6.69529H20.6701Z" fill="#8BC53F"/>
<path d="M10.4638 17.8044C10.6666 17.594 10.8497 17.4027 11.0349 17.2134C11.9826 16.244 12.9303 15.2735 13.879 14.3051C14.1677 14.0101 14.5153 13.9372 14.8267 14.1031C15.2374 14.323 15.3719 14.8685 15.0843 15.2396C14.9115 15.4616 14.7015 15.6541 14.5039 15.856C13.371 17.0157 12.2382 18.1744 11.1042 19.3331C11.0525 19.386 11.0008 19.4389 10.9449 19.4875C10.6449 19.7444 10.2476 19.7486 9.95792 19.4811C9.73755 19.2782 9.53477 19.0572 9.32475 18.8426C8.9047 18.4144 8.4857 17.9852 8.06565 17.557C7.8877 17.3752 7.8039 17.1574 7.8277 16.9016C7.8577 16.5781 8.0253 16.3529 8.32223 16.2397C8.61916 16.1266 8.89539 16.1848 9.12093 16.4089C9.54822 16.835 9.96516 17.2726 10.3862 17.7061C10.41 17.7304 10.4287 17.76 10.4638 17.8055V17.8044Z" fill="white"/>
</g>
<defs>
<clipPath id="clip0_1583_4472">
<rect width="23" height="27" fill="white"/>
</clipPath>
</defs>
</svg>
