<svg width="32" height="27" viewBox="0 0 32 27" fill="none" xmlns="http://www.w3.org/2000/svg">
<g clip-path="url(#clip0_1555_3123)">
<path d="M1.7624 20.8458C1.4164 20.2046 1.2622 19.5373 1.42768 18.8193C1.59065 18.1112 1.98053 17.5541 2.58979 17.1332C1.56683 15.8817 1.49538 14.5818 2.39673 13.2374C2.1974 13.1322 2.00309 13.0455 1.82508 12.9341C0.723143 12.2409 0.103853 11.2542 0.0223671 9.96304C-0.0653866 8.57777 0.370874 7.32992 1.11051 6.17491C1.87397 4.98153 2.88564 4.02583 4.07909 3.26078C4.72346 2.8473 5.38286 2.44868 6.06734 2.1033C7.18056 1.54003 8.36147 1.14017 9.57247 0.828209C10.9138 0.482821 12.269 0.230279 13.653 0.110198C14.8803 0.00373463 16.1089 -0.0371177 17.3362 0.0396352C18.2187 0.0941049 19.1 0.189427 19.975 0.31446C21.3615 0.51377 22.7167 0.859158 24.038 1.32091C25.6627 1.88913 27.1784 2.66285 28.5486 3.69901C29.7947 4.64233 30.8151 5.77877 31.4507 7.21108C31.9509 8.33761 32.1715 9.51119 31.8481 10.7269C31.556 11.8224 30.8628 12.611 29.8373 13.1149C29.7596 13.1532 29.6806 13.1891 29.5941 13.2312C30.4917 14.5744 30.4365 15.8668 29.4211 17.1171C30.6847 18.1471 30.9731 19.3863 30.2347 20.8533C30.3613 20.8978 30.4955 20.9375 30.6233 20.9919C31.4419 21.341 31.8795 21.9699 31.9634 22.8328C32.0963 24.1995 31.6037 25.3111 30.498 26.1455C30.0053 26.5169 29.4311 26.6642 28.8143 26.6642C22.4835 26.6642 16.1527 26.6642 9.8232 26.6642C7.64064 26.6642 5.45683 26.6543 3.27427 26.6679C2.03945 26.6754 1.16567 26.0985 0.535099 25.1032C0.185338 24.556 0.00481634 23.9407 -0.000198159 23.3032C-0.0077199 22.2051 0.37965 21.289 1.67214 20.8879C1.70097 20.8793 1.7273 20.8619 1.76114 20.8458H1.7624ZM15.9973 12.0688C19.7481 12.0688 23.499 12.0688 27.2498 12.0688C27.6247 12.0688 27.9995 12.075 28.3743 12.0589C29.287 12.0193 30.1118 11.4052 30.414 10.5523C30.6233 9.96304 30.5744 9.36635 30.4528 8.77213C30.2284 7.67655 29.6618 6.75675 28.9121 5.94218C27.8779 4.81812 26.618 3.99612 25.2428 3.34125C23.5441 2.53287 21.7514 2.01416 19.8885 1.74182C19.0712 1.62173 18.2463 1.53755 17.4214 1.48308C16.2142 1.40262 15.0069 1.44099 13.8009 1.53508C12.4897 1.63783 11.2009 1.85571 9.93101 2.19119C8.14961 2.66037 6.46725 3.3561 4.93406 4.37865C3.74061 5.17341 2.71014 6.12663 2.05073 7.41781C1.63202 8.23734 1.37879 9.09523 1.45777 10.0286C1.54051 11.0141 2.40801 11.9339 3.40214 12.0317C3.87225 12.0775 4.34862 12.07 4.82124 12.07C8.54575 12.0725 12.2715 12.0713 15.996 12.0713L15.9973 12.0688ZM16.0299 22.1506C13.1541 22.1506 10.2783 22.1506 7.40245 22.1506C5.87052 22.1506 4.33859 22.1457 2.80792 22.1593C2.52585 22.1618 2.23752 22.215 1.96548 22.2905C1.6433 22.3797 1.45401 22.6186 1.46403 22.9553C1.47406 23.2871 1.48033 23.6288 1.56683 23.9457C1.73607 24.5609 2.11717 25.019 2.77156 25.1811C2.96964 25.2307 3.18526 25.217 3.39211 25.217C11.6761 25.2183 19.96 25.217 28.2439 25.217C28.4633 25.217 28.6815 25.2133 28.9008 25.217C29.3659 25.222 29.732 25.0252 30.0329 24.6884C30.4604 24.2081 30.5657 23.635 30.5406 23.0209C30.523 22.5926 30.3513 22.35 29.9313 22.2571C29.6292 22.1903 29.3133 22.1544 29.0049 22.1544C24.6811 22.1482 20.3561 22.1506 16.0324 22.1506H16.0299ZM15.9985 20.7183V20.7159C19.6867 20.7159 23.3749 20.7159 27.063 20.7159C27.3702 20.7159 27.6786 20.7221 27.9844 20.7022C28.5987 20.6639 29.1453 20.1377 29.1904 19.5596C29.2468 18.8404 28.8607 18.2796 28.1863 18.136C27.9757 18.0914 27.7525 18.0852 27.5344 18.0852C19.8096 18.0827 12.0835 18.0827 4.35865 18.0852C4.22827 18.0852 4.0979 18.0927 3.96877 18.1075C3.34447 18.1781 2.86057 18.6485 2.80416 19.234C2.74273 19.8877 3.10503 20.4596 3.72432 20.6379C3.93493 20.6985 4.16559 20.7146 4.38623 20.7146C8.25617 20.7196 12.1274 20.7183 15.9973 20.7183H15.9985ZM3.26048 15.5338C3.3545 15.5239 3.44852 15.5338 3.52625 15.5029C3.78951 15.3964 4.05904 15.2961 4.30098 15.1538C4.62693 14.9631 4.91902 14.7155 5.24496 14.5249C6.4848 13.7994 7.75973 13.7586 9.03843 14.4073C9.45714 14.619 9.82445 14.9285 10.2269 15.1723C11.1746 15.7443 12.1274 15.7294 13.0651 15.1476C13.3772 14.9532 13.6643 14.718 13.9815 14.5323C15.2188 13.8056 16.4937 13.7574 17.7749 14.4036C18.1711 14.6029 18.5309 14.8752 18.8957 15.129C19.4987 15.5487 20.1643 15.6427 20.8751 15.535C21.2989 15.4707 21.6536 15.2615 21.9984 15.0238C22.2917 14.8208 22.5813 14.6041 22.896 14.437C24.097 13.7982 25.3192 13.792 26.5277 14.4073C26.9276 14.6103 27.2862 14.8926 27.6623 15.1401C27.9506 15.3308 28.2552 15.4806 28.6025 15.535C28.6865 15.5474 28.7354 15.5437 28.7592 15.4447C28.9623 14.5954 28.4144 13.7128 27.5494 13.5457C27.2724 13.4924 26.9803 13.506 26.6945 13.506C23.1204 13.5036 19.5463 13.506 15.9722 13.506C12.3668 13.506 8.76138 13.5036 5.15596 13.5073C4.88643 13.5073 4.60687 13.5048 4.34988 13.5704C3.50869 13.7846 3.05238 14.6153 3.25922 15.5363L3.26048 15.5338ZM18.6612 16.6517C18.6437 16.6269 18.6374 16.6133 18.6274 16.6059C18.2388 16.3496 17.8476 16.0946 17.4603 15.8371C16.5602 15.2392 15.4119 15.2466 14.5143 15.8532C14.1545 16.0971 13.7884 16.3323 13.4249 16.5712C13.3973 16.5898 13.3722 16.6133 13.3233 16.6529H18.66L18.6612 16.6517ZM27.3965 16.6517C26.9339 16.3385 26.4939 16.0389 26.0526 15.7418C25.9799 15.6935 25.9009 15.6489 25.8194 15.6168C24.9645 15.285 24.1321 15.3011 23.3423 15.8012C22.9399 16.0562 22.5462 16.3249 22.1476 16.5873C22.1275 16.5997 22.1112 16.617 22.0673 16.6504H27.3952L27.3965 16.6517ZM9.91346 16.6517C9.53988 16.3991 9.1663 16.1751 8.82657 15.9101C7.95154 15.2305 6.54372 15.2181 5.63359 15.9423C5.35152 16.1664 5.03185 16.3447 4.72972 16.544C4.69462 16.5675 4.66454 16.5984 4.60185 16.6504H9.91346V16.6517Z" fill="#8BC53F"/>
<path d="M15.9975 12.0688C12.273 12.0688 8.5472 12.0688 4.82268 12.0675C4.34881 12.0675 3.87369 12.075 3.40358 12.0292C2.4082 11.9314 1.54195 11.0128 1.45921 10.0262C1.38149 9.09274 1.63347 8.23608 2.05218 7.41532C2.71158 6.12414 3.74206 5.17216 4.93551 4.37616C6.46744 3.35485 8.1498 2.65912 9.93246 2.1887C11.2024 1.85445 12.4911 1.63534 13.8024 1.53259C15.0096 1.4385 16.2169 1.40013 17.4229 1.48059C18.2477 1.53506 19.0726 1.62048 19.89 1.73932C21.7529 2.01167 23.5443 2.53161 25.2442 3.33875C26.6194 3.99239 27.8793 4.81563 28.9136 5.93969C29.6632 6.75426 30.2299 7.67405 30.4543 8.76964C30.5759 9.36509 30.6248 9.96055 30.4154 10.5498C30.1133 11.4028 29.2884 12.018 28.3758 12.0564C28.0009 12.0725 27.6261 12.0651 27.2513 12.0663C23.5004 12.0663 19.7496 12.0663 15.9987 12.0663L15.9975 12.0688ZM24.9496 8.56909C24.9521 8.17542 24.6324 7.84737 24.2488 7.84737C23.8828 7.84737 23.5481 8.18285 23.5418 8.55547C23.5355 8.91819 23.8765 9.26358 24.2438 9.26606C24.6262 9.26853 24.9484 8.95038 24.9496 8.56909ZM16.7008 8.56166C16.6958 8.16676 16.3723 7.84118 15.9912 7.8486C15.6214 7.85603 15.2942 8.19275 15.2942 8.56414C15.2942 8.93676 15.6277 9.26606 16.0012 9.26606C16.3811 9.26606 16.7045 8.93924 16.7008 8.56166ZM7.75616 9.26606C8.1335 9.26234 8.46321 8.9281 8.45318 8.55671C8.44315 8.17171 8.12348 7.8486 7.75115 7.8486C7.37632 7.8486 7.04034 8.19152 7.04411 8.56909C7.04787 8.94295 7.38133 9.26977 7.75616 9.26606ZM19.9301 4.24741C19.539 4.23874 19.2168 4.53709 19.2043 4.92209C19.1917 5.29471 19.5101 5.62401 19.895 5.63639C20.2623 5.64877 20.6171 5.317 20.6246 4.95304C20.6334 4.5767 20.3175 4.25484 19.9301 4.24741ZM12.095 4.24741C11.7013 4.24493 11.3691 4.56556 11.3704 4.94437C11.3716 5.3009 11.7051 5.62896 12.0736 5.63763C12.451 5.64629 12.7844 5.3269 12.7907 4.95056C12.797 4.56928 12.4811 4.25112 12.095 4.24865V4.24741Z" fill="white"/>
<path d="M16.0288 22.1519C20.3526 22.1519 24.6776 22.1494 29.0013 22.1556C29.311 22.1556 29.6269 22.1915 29.9277 22.2583C30.3477 22.3512 30.5182 22.5938 30.537 23.0221C30.5633 23.6362 30.458 24.2093 30.0293 24.6897C29.7284 25.0276 29.3624 25.2245 28.8973 25.2183C28.6779 25.2158 28.4598 25.2183 28.2404 25.2183C19.9564 25.2183 11.6725 25.2183 3.38854 25.2183C3.18043 25.2183 2.96481 25.2306 2.76799 25.1824C2.1136 25.019 1.7325 24.5622 1.56326 23.9469C1.47676 23.63 1.46924 23.2883 1.46046 22.9565C1.45043 22.6198 1.63973 22.3809 1.96191 22.2918C2.2352 22.2162 2.52354 22.163 2.80435 22.1605C4.33628 22.1469 5.8682 22.1519 7.39888 22.1519C10.2747 22.1519 13.1505 22.1519 16.0263 22.1519H16.0288Z" fill="white"/>
<path d="M15.9975 20.7196C12.1276 20.7196 8.25636 20.7196 4.38642 20.7158C4.16453 20.7158 3.93512 20.6998 3.72451 20.6391C3.10522 20.4608 2.74292 19.8877 2.80435 19.2353C2.85951 18.6497 3.34341 18.1793 3.96897 18.1087C4.09809 18.0939 4.22847 18.0864 4.35884 18.0864C12.0837 18.0864 19.8098 18.0852 27.5346 18.0864C27.7515 18.0864 27.9746 18.0926 28.1865 18.1372C28.8609 18.2808 29.247 18.8404 29.1906 19.5608C29.1455 20.139 28.5989 20.6651 27.9846 20.7035C27.6788 20.7233 27.3704 20.7171 27.0632 20.7171C23.3751 20.7171 19.6869 20.7171 15.9987 20.7171V20.7196H15.9975Z" fill="white"/>
<path d="M3.26068 15.5338C3.05258 14.614 3.51015 13.7833 4.35133 13.5679C4.60833 13.5023 4.88788 13.5048 5.15741 13.5048C8.76284 13.5011 12.3683 13.5036 15.9737 13.5036C19.5478 13.5036 23.1218 13.5023 26.6959 13.5036C26.9818 13.5036 27.2738 13.4899 27.5509 13.5432C28.4159 13.7103 28.9637 14.5942 28.7606 15.4422C28.7368 15.5425 28.6879 15.5462 28.6039 15.5326C28.2567 15.4793 27.9521 15.3283 27.6637 15.1377C27.2876 14.8901 26.9278 14.6078 26.5292 14.4048C25.3207 13.7895 24.0984 13.7957 22.8974 14.4345C22.5828 14.6016 22.2945 14.8183 21.9999 15.0213C21.6564 15.259 21.3016 15.4694 20.8766 15.5326C20.1658 15.6403 19.5001 15.5449 18.8971 15.1265C18.5311 14.8727 18.1713 14.6004 17.7764 14.4011C16.4952 13.7549 15.2203 13.8019 13.9829 14.5298C13.6658 14.7155 13.3787 14.9507 13.0665 15.1451C12.1288 15.7282 11.1761 15.7418 10.2283 15.1698C9.82466 14.926 9.45734 14.6177 9.03989 14.4048C7.76244 13.7573 6.48626 13.797 5.24642 14.5224C4.92048 14.713 4.62838 14.9594 4.30244 15.1513C4.05924 15.2936 3.78971 15.3939 3.5277 15.5004C3.44998 15.5313 3.35596 15.5214 3.26193 15.5313L3.26068 15.5338Z" fill="white"/>
<path d="M18.6614 16.6504H13.3248C13.3737 16.6108 13.3987 16.5873 13.4263 16.5687C13.7886 16.3298 14.1547 16.0946 14.5157 15.8507C15.4121 15.2441 16.5616 15.2367 17.4617 15.8346C17.8491 16.0921 18.2402 16.3471 18.6289 16.6034C18.6401 16.6108 18.6451 16.6257 18.6627 16.6492L18.6614 16.6504Z" fill="white"/>
<path d="M27.3967 16.6504H22.0688C22.1114 16.6158 22.129 16.5997 22.149 16.5873C22.5464 16.3248 22.9401 16.0562 23.3437 15.8012C24.1335 15.2998 24.9659 15.285 25.8209 15.6167C25.9024 15.6489 25.9813 15.6922 26.0541 15.7418C26.4953 16.0389 26.9354 16.3385 27.3979 16.6517L27.3967 16.6504Z" fill="white"/>
<path d="M9.9124 16.6504H4.6008C4.66348 16.5984 4.69357 16.5675 4.72867 16.544C5.03079 16.3434 5.35047 16.1664 5.63253 15.9423C6.54266 15.2181 7.95048 15.2305 8.82551 15.9101C9.1665 16.175 9.54008 16.3991 9.9124 16.6517V16.6504Z" fill="white"/>
<path d="M24.9496 8.56909C24.9471 8.95038 24.6262 9.26853 24.2438 9.26606C23.8765 9.26358 23.5355 8.91819 23.5418 8.55547C23.5481 8.18409 23.884 7.8486 24.2488 7.84737C24.6325 7.84737 24.9509 8.17542 24.9496 8.56909Z" fill="#8BC53F"/>
<path d="M16.7008 8.56166C16.7058 8.93924 16.3824 9.26482 16.0013 9.26606C15.6264 9.26606 15.2942 8.93676 15.2942 8.56414C15.2942 8.19275 15.6214 7.85603 15.9912 7.8486C16.3723 7.84118 16.6958 8.16676 16.7008 8.56166Z" fill="#8BC53F"/>
<path d="M7.75616 9.26606C7.38132 9.26977 7.04911 8.94419 7.0441 8.56909C7.04034 8.19152 7.37631 7.84737 7.75114 7.84861C8.12347 7.84861 8.4444 8.17171 8.45317 8.55671C8.46195 8.92686 8.1335 9.26234 7.75616 9.26606Z" fill="#8BC53F"/>
<path d="M19.9301 4.24741C20.3175 4.25607 20.6334 4.5767 20.6246 4.95304C20.6158 5.31699 20.2623 5.64877 19.895 5.63639C19.5101 5.62401 19.1905 5.29347 19.2043 4.92209C19.218 4.53709 19.539 4.23874 19.9301 4.24741Z" fill="#8BC53F"/>
<path d="M12.095 4.2474C12.4811 4.24987 12.797 4.56803 12.7907 4.94931C12.7845 5.32565 12.451 5.64504 12.0736 5.63638C11.7051 5.62895 11.3716 5.29965 11.3704 4.94312C11.3691 4.56431 11.7013 4.24492 12.095 4.24616V4.2474Z" fill="#8BC53F"/>
</g>
<defs>
<clipPath id="clip0_1555_3123">
<rect width="32" height="26.6667" fill="white"/>
</clipPath>
</defs>
</svg>
