<svg width="32" height="32" viewBox="0 0 32 32" fill="none" xmlns="http://www.w3.org/2000/svg">
<g clip-path="url(#clip0_1555_3100)">
<path d="M32 9.74951C31.9399 9.9457 31.8856 10.1444 31.818 10.3389C31.3895 11.572 30.2946 12.3818 28.9925 12.4444C27.6202 12.5104 26.3056 12.8869 24.981 13.21C24.7697 13.2617 24.5601 13.3202 24.3412 13.3778C24.4364 13.7485 24.5525 14.1008 24.616 14.4623C24.8983 16.0652 24.3396 17.4076 23.3006 18.5923C22.6424 19.3428 21.854 19.9372 21.033 20.4958C17.2971 23.0379 13.5746 25.6017 9.82288 28.1213C7.94701 29.3803 6.01686 30.5616 3.91214 31.4115C3.28073 31.6661 2.60672 31.8414 1.93605 31.9633C1.00396 32.132 0.255621 31.7104 0.0702058 30.9523C-0.00913855 30.6276 -0.0174906 30.2677 0.0242696 29.9338C0.151221 28.9195 0.570493 27.9961 1.01482 27.0895C2.02542 25.029 3.23062 23.0805 4.51349 21.1845C6.95813 17.5713 9.43368 13.9789 11.9176 10.3924C12.3001 9.83968 12.757 9.32541 13.2439 8.86123C14.7748 7.40106 16.5396 6.89097 18.6159 7.69159C18.7596 7.13057 18.9308 6.58624 19.0335 6.02856C19.2298 4.96663 19.4261 3.90219 19.5505 2.83023C19.7075 1.48277 20.7298 0.334014 22.1037 0.0626861C22.1722 0.0493284 22.2382 0.0209433 22.3058 -0.000762939C22.5556 -0.000762939 22.8061 -0.000762939 23.0559 -0.000762939C23.0926 0.0159342 23.1277 0.0409798 23.1669 0.0484935C24.307 0.266391 25.1046 0.910899 25.5698 1.97117C25.5932 2.0246 25.6274 2.07302 25.6533 2.11726C26.9588 1.57377 28.1765 1.65809 29.213 2.63237C30.3313 3.68345 30.4641 4.96412 29.8828 6.36417C30.5476 6.6163 31.1122 7.01119 31.468 7.62397C31.6935 8.01218 31.8255 8.45465 31.9984 8.87291V9.74784L32 9.74951ZM12.1356 25.115C11.814 24.8136 11.5217 24.564 11.2586 24.2868C10.9395 23.9504 11.0373 23.4361 11.4398 23.2742C11.7205 23.1615 11.9694 23.2308 12.1798 23.4487C12.4955 23.7751 12.8137 24.0998 13.1361 24.4304C14.9101 23.204 16.6373 22.0102 18.3871 20.8005C17.7774 20.1961 17.1986 19.6258 16.6256 19.0506C16.3041 18.7284 16.2865 18.3569 16.5663 18.0897C16.8269 17.8409 17.2027 17.8701 17.5084 18.1724C18.078 18.7367 18.6435 19.3061 19.2122 19.8721C19.2832 19.9431 19.3601 20.0074 19.4419 20.0825C20.0591 19.6467 20.6805 19.2585 21.2418 18.7968C21.7454 18.3827 22.2223 17.9219 22.6399 17.4218C23.2346 16.7105 23.5177 15.8657 23.4233 14.9264C23.349 14.1868 23.0659 13.5147 22.66 12.9011C21.6936 11.4401 20.4759 10.227 19.0026 9.27615C18.4464 8.91716 17.8383 8.67171 17.176 8.5899C16.0435 8.44964 15.1122 8.87792 14.2052 9.66185C14.3355 9.75285 14.4416 9.80712 14.5217 9.88643C15.1807 10.5384 15.838 11.193 16.4903 11.8517C16.8002 12.1647 16.816 12.5229 16.5496 12.7909C16.2832 13.0589 15.9249 13.043 15.61 12.7333C15.0972 12.229 14.5886 11.7214 14.0849 11.208C13.8611 10.9801 13.6556 10.7338 13.395 10.4433C12.1422 12.2507 10.9462 13.9755 9.73853 15.7179C10.1603 16.1353 10.5679 16.5369 10.973 16.941C11.3638 17.3308 11.7606 17.7157 12.1406 18.1156C12.3778 18.3652 12.3644 18.7275 12.1414 18.963C11.9075 19.2101 11.5442 19.2251 11.2695 18.9939C11.1818 18.9204 11.1041 18.8352 11.0231 18.7543C10.3616 18.0914 9.70094 17.4285 9.01524 16.7406C7.81171 18.5155 6.62823 20.2603 5.41969 22.0428C5.59926 22.2022 5.75293 22.3274 5.89325 22.466C6.21313 22.7799 6.53385 23.093 6.8387 23.4203C7.04666 23.6432 7.06003 23.9095 6.90718 24.1708C6.76771 24.4096 6.46286 24.5273 6.19977 24.4254C6.06029 24.3712 5.9325 24.266 5.82393 24.1591C5.4723 23.8135 5.13154 23.457 4.76489 23.0822C3.5931 24.9647 2.43634 26.7831 1.6287 28.7909C1.45163 29.2309 1.32719 29.7009 1.24701 30.1684C1.15931 30.6785 1.28626 30.7812 1.79991 30.7478C1.89262 30.7419 1.9895 30.7344 2.0772 30.706C2.61006 30.5307 3.15962 30.393 3.66826 30.1626C6.65078 28.8126 9.33095 26.955 12.1364 25.1134L12.1356 25.115ZM22.7769 10.9517C22.898 11.1036 23.0016 11.2314 23.1018 11.3616C23.2037 11.4935 23.3039 11.6263 23.4008 11.7615C23.7399 12.2349 23.7382 12.2299 24.3078 12.0888C25.8922 11.6981 27.4657 11.2715 29.1102 11.1754C30.0265 11.122 30.7481 10.2463 30.7456 9.30954C30.7431 8.38619 29.9939 7.55885 29.0743 7.47453C28.9799 7.46618 28.868 7.49373 28.7845 7.54132C27.2995 8.37951 25.8187 9.22355 24.3362 10.0659C23.8226 10.3581 23.3089 10.6495 22.7769 10.9517ZM21.0397 9.19767C21.0697 9.16511 21.0956 9.14508 21.1107 9.12003C22.2374 7.14309 23.364 5.16616 24.4849 3.18588C24.5266 3.11158 24.5408 3.00722 24.5317 2.92123C24.4264 1.97283 23.5578 1.22147 22.6207 1.2607C21.6377 1.30245 20.8643 2.08471 20.7975 3.05731C20.7557 3.65674 20.6922 4.26034 20.5694 4.84808C20.3498 5.905 20.075 6.95024 19.8378 8.00299C19.8119 8.11653 19.8428 8.30438 19.9205 8.36866C20.273 8.65836 20.6521 8.91549 21.0397 9.19767ZM22.1806 9.77289C22.1981 9.78875 22.2148 9.80461 22.2323 9.82047C22.9373 9.42141 23.6422 9.02235 24.3462 8.62329C25.5581 7.93621 26.7742 7.25747 27.9802 6.56036C29.0142 5.96261 29.2798 4.68695 28.5791 3.77028C27.7647 2.70667 26.1461 2.81938 25.4554 4.00738C24.6202 5.445 23.8109 6.89765 22.9907 8.34445C22.7209 8.82032 22.4512 9.29702 22.1814 9.77289H22.1806Z" fill="white"/>
<path d="M12.1355 25.1149C9.33088 26.9558 6.64988 28.8134 3.66737 30.1641C3.15956 30.3946 2.60916 30.5323 2.0763 30.7076C1.98861 30.7369 1.89256 30.7435 1.79902 30.7494C1.28537 30.7828 1.15841 30.6801 1.24611 30.17C1.32629 29.7025 1.45074 29.2325 1.6278 28.7925C2.43544 26.7847 3.5922 24.9663 4.76399 23.0837C5.13064 23.4586 5.47141 23.8151 5.82303 24.1607C5.9316 24.2676 6.05939 24.3728 6.19887 24.427C6.46196 24.5289 6.76681 24.4112 6.90629 24.1724C7.05913 23.9111 7.04577 23.6456 6.8378 23.4219C6.53212 23.0946 6.2114 22.7815 5.89235 22.4676C5.75204 22.329 5.59836 22.2038 5.41879 22.0443C6.62733 20.2619 7.81081 18.5171 9.01434 16.7422C9.70004 17.4301 10.3615 18.093 11.0222 18.7559C11.1032 18.8368 11.1809 18.922 11.2686 18.9955C11.5433 19.2267 11.9067 19.2117 12.1405 18.9646C12.3635 18.7283 12.3769 18.3668 12.1397 18.1172C11.7597 17.7165 11.3638 17.3316 10.9721 16.9425C10.5661 16.5385 10.1586 16.1369 9.73763 15.7195C10.9453 13.9771 12.1413 12.2523 13.3941 10.4449C13.6547 10.7354 13.8602 10.9808 14.084 11.2096C14.5868 11.723 15.0963 12.2306 15.6091 12.7349C15.924 13.0446 16.2831 13.0605 16.5487 12.7925C16.8151 12.5237 16.7993 12.1663 16.4894 11.8533C15.8371 11.1937 15.1806 10.54 14.5208 9.88802C14.4407 9.80871 14.3346 9.75444 14.2043 9.66345C15.1113 8.87952 16.0426 8.45207 17.1751 8.59149C17.8374 8.67331 18.4455 8.91875 19.0017 9.27774C20.4742 10.2286 21.6927 11.4417 22.6591 12.9027C23.065 13.5171 23.3481 14.1884 23.4224 14.928C23.5168 15.8673 23.2337 16.7121 22.639 17.4234C22.2214 17.9235 21.7445 18.3843 21.2409 18.7984C20.6796 19.2601 20.0582 19.6483 19.441 20.0841C19.3583 20.009 19.2815 19.9447 19.2113 19.8737C18.6434 19.3077 18.078 18.7383 17.5075 18.174C17.2018 17.8709 16.826 17.8417 16.5654 18.0913C16.2856 18.3585 16.3032 18.73 16.6247 19.0522C17.1977 19.6274 17.7773 20.1976 18.3862 20.8021C16.6364 22.0118 14.91 23.2056 13.1352 24.432C12.8128 24.1014 12.4946 23.7767 12.1789 23.4502C11.9685 23.2332 11.7196 23.1631 11.4389 23.2758C11.0372 23.4377 10.9395 23.952 11.2577 24.2884C11.5208 24.5656 11.8131 24.8152 12.1347 25.1166L12.1355 25.1149ZM10.5453 22.0861C10.5528 21.7555 10.2738 21.4608 9.94142 21.4483C9.61151 21.4357 9.31501 21.7121 9.30082 22.0452C9.28578 22.4 9.56056 22.6889 9.91636 22.6905C10.2588 22.693 10.5378 22.4242 10.5453 22.0853V22.0861ZM18.4956 14.109C18.4897 13.7709 18.2191 13.5021 17.88 13.5004C17.5359 13.4988 17.2436 13.7935 17.252 14.1341C17.2595 14.4622 17.5459 14.7435 17.8742 14.7452C18.2225 14.7469 18.5014 14.4614 18.4956 14.109Z" fill="#8BC53F"/>
<path d="M22.7769 10.9516C23.3089 10.6494 23.8225 10.3572 24.3362 10.0658C25.8187 9.22348 27.2995 8.37944 28.7845 7.54125C28.868 7.4945 28.9799 7.46611 29.0743 7.47446C29.9939 7.55878 30.743 8.38612 30.7455 9.30947C30.748 10.2462 30.0273 11.1219 29.1102 11.1754C27.4657 11.2714 25.8922 11.698 24.3078 12.0887C23.7373 12.229 23.7398 12.234 23.4008 11.7614C23.3039 11.6262 23.2028 11.4935 23.1018 11.3615C23.0015 11.2313 22.8971 11.1036 22.7769 10.9516Z" fill="#8BC53F"/>
<path d="M21.0405 9.19759C20.6529 8.91541 20.2737 8.65828 19.9213 8.36858C19.8436 8.3043 19.8127 8.11646 19.8386 8.00292C20.0758 6.94933 20.3506 5.90409 20.5702 4.848C20.6922 4.26026 20.7565 3.65666 20.7982 3.05723C20.8659 2.08463 21.6393 1.30237 22.6215 1.26063C23.5586 1.22139 24.4272 1.97276 24.5324 2.92115C24.5416 3.00714 24.5283 3.11233 24.4857 3.1858C23.364 5.16608 22.2373 7.14301 21.1114 9.11995C21.0964 9.14583 21.0705 9.16503 21.0405 9.19759Z" fill="#8BC53F"/>
<path d="M22.1813 9.77282C22.4511 9.29695 22.7209 8.82025 22.9907 8.34439C23.8108 6.89842 24.6201 5.44493 25.4553 4.00731C26.1461 2.81931 27.7647 2.70661 28.579 3.77021C29.2806 4.68605 29.015 5.96171 27.9802 6.5603C26.7741 7.2574 25.5581 7.93698 24.3462 8.62323C23.6413 9.02229 22.9364 9.42135 22.2323 9.82041C22.2148 9.80455 22.1981 9.78868 22.1805 9.77282H22.1813Z" fill="#8BC53F"/>
<path d="M10.5453 22.0861C10.5378 22.4251 10.2588 22.693 9.91637 22.6914C9.56057 22.6889 9.28495 22.4 9.30082 22.046C9.31502 21.7129 9.61235 21.4366 9.94142 21.4491C10.2738 21.4616 10.5528 21.7563 10.5453 22.0869V22.0861Z" fill="white"/>
<path d="M18.4964 14.1091C18.5023 14.4614 18.2233 14.7469 17.875 14.7452C17.5468 14.7435 17.2603 14.4622 17.2528 14.1341C17.2444 13.7935 17.5376 13.4988 17.8809 13.5004C18.2191 13.5021 18.4906 13.7709 18.4964 14.1091Z" fill="white"/>
</g>
<defs>
<clipPath id="clip0_1555_3100">
<rect width="32" height="32" fill="white"/>
</clipPath>
</defs>
</svg>
