<svg width="32" height="32" viewBox="0 0 32 32" fill="none" xmlns="http://www.w3.org/2000/svg">
<g opacity="0.6">
<path fill-rule="evenodd" clip-rule="evenodd" d="M18.8317 3.83384L19.8063 4.80851C20.1837 5.18317 20.6877 5.39117 21.2237 5.39117H22.5943C24.809 5.39117 26.6103 7.19251 26.6103 9.40717V10.7765C26.6103 11.3112 26.8183 11.8165 27.1957 12.1965L28.153 13.1552C28.9117 13.9085 29.333 14.9152 29.337 15.9885C29.341 17.0618 28.9263 18.0712 28.1703 18.8325L27.193 19.8072C26.8183 20.1845 26.6103 20.6872 26.6103 21.2232V22.5952C26.6103 24.8085 24.809 26.6098 22.5957 26.6098H21.221C20.693 26.6098 20.177 26.8232 19.8023 27.1952L18.845 28.1525C18.0623 28.9405 17.0303 29.3352 15.9983 29.3352C14.9757 29.3352 13.953 28.9485 13.1703 28.1725C13.1597 28.1618 13.149 28.1512 13.1383 28.1392L12.1917 27.1938C11.8143 26.8192 11.3103 26.6112 10.7743 26.6098H9.40632C7.19165 26.6098 5.39165 24.8085 5.39165 22.5952V21.2205C5.39165 20.6845 5.18232 20.1818 4.80632 19.8032L3.84765 18.8458C2.29032 17.2965 2.27165 14.7738 3.80098 13.2005L3.83698 13.1645L4.80765 12.1912C5.18232 11.8138 5.39165 11.3085 5.39165 10.7738V9.40717C5.39165 7.19384 7.19165 5.39251 9.40498 5.39117H10.7783C11.313 5.39117 11.817 5.18184 12.1996 4.80451L13.153 3.84851C14.7117 2.27917 17.2597 2.27117 18.8317 3.83384ZM14.5703 5.26051L13.6117 6.22184C12.8463 6.97784 11.8423 7.39117 10.7783 7.39117H9.40632C8.29565 7.39251 7.39165 8.29651 7.39165 9.40717V10.7738C7.39165 11.8418 6.97698 12.8458 6.22498 13.6032L5.27832 14.5512C5.26898 14.5618 5.25965 14.5698 5.25032 14.5792C4.46765 15.3672 4.47165 16.6458 5.25965 17.4285L6.22232 18.3912C6.97698 19.1485 7.39165 20.1525 7.39165 21.2205V22.5952C7.39165 23.7058 8.29432 24.6098 9.40632 24.6098H10.7757C11.845 24.6112 12.849 25.0258 13.605 25.7792L14.5663 26.7378L14.593 26.7672C15.3797 27.5352 16.6463 27.5258 17.4277 26.7405L18.3903 25.7805C19.137 25.0352 20.169 24.6098 21.221 24.6098H22.5943C23.7063 24.6098 24.6103 23.7058 24.6103 22.5952V21.2232C24.6103 20.1552 25.0237 19.1512 25.7783 18.3952L26.7383 17.4338C27.129 17.0418 27.3383 16.5338 27.337 15.9952C27.3357 15.4578 27.1237 14.9525 26.741 14.5712L25.7797 13.6085C25.0237 12.8472 24.6103 11.8445 24.6103 10.7765V9.40717C24.6103 8.29517 23.7063 7.39117 22.5943 7.39117H21.2237C20.1557 7.39117 19.1517 6.97651 18.3957 6.22584L17.433 5.26184C16.6317 4.46851 15.353 4.47251 14.5703 5.26051ZM19.3378 17.9988C20.0751 17.9988 20.6711 18.5948 20.6711 19.3321C20.6711 20.0694 20.0751 20.6654 19.3378 20.6654C18.6005 20.6654 17.9978 20.0694 17.9978 19.3321C17.9978 18.5948 18.5885 17.9988 19.3258 17.9988H19.3378ZM20.1349 11.8672C20.5255 12.2578 20.5255 12.8912 20.1349 13.2818L13.2802 20.1352C13.0855 20.3312 12.8295 20.4285 12.5735 20.4285C12.3175 20.4285 12.0615 20.3312 11.8668 20.1352C11.4762 19.7445 11.4762 19.1125 11.8668 18.7218L18.7202 11.8672C19.1109 11.4765 19.7442 11.4765 20.1349 11.8672ZM12.6711 11.3321C13.4085 11.3321 14.0045 11.9281 14.0045 12.6654C14.0045 13.4028 13.4085 13.9988 12.6711 13.9988C11.9338 13.9988 11.3311 13.4028 11.3311 12.6654C11.3311 11.9281 11.9218 11.3321 12.6591 11.3321H12.6711Z" fill="white"/>
</g>
</svg>
