<svg width="28" height="28" viewBox="0 0 28 28" fill="none" xmlns="http://www.w3.org/2000/svg">
<path d="M11.1537 1.84802C12.7142 0.276015 15.2618 0.276015 16.8357 1.83602L17.8094 2.80802C18.1829 3.18135 18.6897 3.39602 19.2232 3.39602H20.5971C22.8112 3.39602 24.6119 5.19468 24.6119 7.40802V8.78268C24.6119 9.31468 24.8253 9.82135 25.1987 10.1947L26.1591 11.1547C26.9194 11.9013 27.3329 12.9147 27.3329 13.9813C27.3462 15.048 26.9327 16.0627 26.1858 16.8214L25.1987 17.808C24.8253 18.1813 24.6119 18.688 24.6119 19.2227V20.5947C24.6119 22.808 22.8112 24.6094 20.5971 24.6094H19.2232C18.6897 24.6094 18.1829 24.8214 17.8094 25.1947L16.8491 26.1547C16.0621 26.9427 15.0351 27.328 14.008 27.328C12.981 27.328 11.9539 26.9427 11.167 26.1693L10.1933 25.1947C9.81984 24.8214 9.31299 24.6094 8.77947 24.6094H7.40563C5.1915 24.6094 3.39085 22.808 3.39085 20.5947V19.2227C3.39085 18.688 3.17744 18.1813 2.80397 17.7947L1.84362 16.848C0.283053 15.2893 0.269715 12.7413 1.83028 11.1693L2.80397 10.1947C3.17744 9.82135 3.39085 9.31468 3.39085 8.76802V7.40802C3.39085 5.19468 5.1915 3.39602 7.40563 3.39602H8.77947C9.31299 3.39602 9.81984 3.18135 10.1933 2.80802L11.1537 1.84802ZM17.4359 16.2613C16.7824 16.2613 16.2622 16.7827 16.2622 17.4213C16.2622 18.0747 16.7824 18.5947 17.4359 18.5947C18.0762 18.5947 18.5964 18.0747 18.5964 17.4213C18.5964 16.7827 18.0762 16.2613 17.4359 16.2613ZM18.2496 9.74135C17.7961 9.28935 17.0625 9.28935 16.609 9.74135L9.75315 16.5947C9.29965 17.048 9.29965 17.7947 9.75315 18.248C9.96656 18.4747 10.26 18.5947 10.5668 18.5947C10.8869 18.5947 11.1803 18.4747 11.3937 18.248L18.2496 11.396C18.7031 10.9427 18.7031 10.1947 18.2496 9.74135ZM10.5801 9.40802C9.93989 9.40802 9.40636 9.92802 9.40636 10.568C9.40636 11.2227 9.93989 11.7413 10.5801 11.7413C11.2204 11.7413 11.7405 11.2227 11.7405 10.568C11.7405 9.92802 11.2204 9.40802 10.5801 9.40802Z" fill="white"/>
</svg>
