<svg width="21" height="32" viewBox="0 0 21 32" fill="none" xmlns="http://www.w3.org/2000/svg">
<g clip-path="url(#clip0_1555_3137)">
<path d="M1.95032 14.0453C1.75352 14.0453 1.56433 14.0491 1.37642 14.0453C0.646348 14.0303 0.0394363 13.4484 0.00261534 12.7298C-0.0354754 11.9887 0.490176 11.3566 1.23041 11.2701C1.4653 11.2425 1.704 11.2438 1.94143 11.24C2.03412 11.2387 2.07348 11.2162 2.10014 11.1171C2.18267 10.8211 2.28298 10.5302 2.38328 10.2405C2.542 9.78402 2.70452 9.32754 2.86831 8.87231C2.99781 8.51365 3.12732 8.42587 3.51458 8.42587C5.25659 8.42587 6.99734 8.42587 8.73935 8.42461C8.79014 8.42461 8.84093 8.4196 8.91584 8.41458C8.91584 8.10984 8.91584 7.8189 8.91584 7.52795C8.9133 6.47579 8.9133 5.42238 8.90568 4.37022C8.89806 3.26664 9.47069 2.44146 10.5296 2.07402C11.8107 1.63008 13.0982 1.20119 14.3819 0.76227C15.0484 0.53403 15.7125 0.29952 16.3778 0.0675175C16.4324 0.0487065 16.4883 0.0311496 16.5441 0.0186089C16.8336 -0.0466025 17.0292 0.0449443 17.1358 0.320839C17.2793 0.69455 17.4063 1.07579 17.5396 1.45326C17.6069 1.64513 17.6767 1.83575 17.7389 2.02888C17.8405 2.34239 17.7389 2.55809 17.4228 2.6697C16.9669 2.83148 16.5073 2.98447 16.0502 3.13998C14.6663 3.61025 13.2823 4.08178 11.8971 4.54829C11.7726 4.58968 11.7219 4.64862 11.7231 4.78155C11.732 5.91773 11.7345 7.05392 11.7384 8.18885C11.7384 8.26033 11.7384 8.33181 11.7384 8.41834C11.7968 8.4221 11.8476 8.42712 11.8983 8.42712C13.634 8.42712 15.3709 8.42712 17.1066 8.42461C17.5218 8.42461 17.6513 8.50362 17.7872 8.89112C18.0411 9.61347 18.2861 10.3383 18.5287 11.0644C18.5718 11.1936 18.6302 11.245 18.7724 11.2412C18.9883 11.2337 19.2054 11.2375 19.4187 11.2651C20.1666 11.3591 20.6922 12.01 20.6427 12.7624C20.5957 13.4647 19.9799 14.0353 19.2524 14.0478C19.0696 14.0516 18.8854 14.0478 18.6912 14.0478C18.6455 14.488 18.6036 14.9169 18.5566 15.3458C18.4131 16.6701 18.2671 17.9956 18.1249 19.3199C18.0233 20.273 17.9294 21.2261 17.8265 22.178C17.7288 23.0784 17.6221 23.9775 17.5231 24.878C17.4545 25.51 17.3948 26.1421 17.3263 26.7741C17.2158 27.8037 17.1003 28.8333 16.9885 29.8641C16.9301 30.4021 16.8743 30.9414 16.8159 31.4794C16.7778 31.8255 16.5835 31.9985 16.2267 31.9985C12.2945 31.9985 8.36352 31.9985 4.43129 31.9985C4.05166 31.9985 3.86882 31.8267 3.82946 31.4593C3.7063 30.3256 3.57806 29.1932 3.4549 28.0595C3.37618 27.3347 3.30508 26.6098 3.22763 25.885C3.10193 24.7099 2.97369 23.5349 2.84799 22.3598C2.72991 21.2525 2.61564 20.1439 2.49756 19.0353C2.37186 17.8502 2.24362 16.6638 2.11538 15.4787C2.06459 15.0085 2.00746 14.5382 1.94905 14.0441L1.95032 14.0453ZM2.9064 14.0604C2.91401 14.1432 2.92036 14.2084 2.92798 14.2748C2.97623 14.72 3.02575 15.1652 3.07273 15.6104C3.17049 16.5271 3.26699 17.4426 3.36602 18.3593C3.45617 19.192 3.54886 20.026 3.63901 20.8587C3.72154 21.6199 3.80153 22.3799 3.88406 23.1411C3.97167 23.9537 4.05927 24.7663 4.14688 25.579C4.23957 26.438 4.33099 27.297 4.42241 28.1573C4.52017 29.0628 4.62429 29.9682 4.71063 30.8749C4.72586 31.0342 4.77157 31.0705 4.9252 31.0693C6.4501 31.0643 7.975 31.0668 9.4999 31.0655C11.5796 31.0655 13.6581 31.063 15.7379 31.0655C15.8801 31.0655 15.9207 31.0254 15.9347 30.8837C16.0451 29.7801 16.1645 28.6778 16.2838 27.5755C16.3956 26.5396 16.5111 25.505 16.6229 24.4704C16.7346 23.4345 16.8438 22.3999 16.9555 21.3641C17.0761 20.2404 17.1993 19.118 17.3212 17.9944C17.4355 16.9385 17.5485 15.8825 17.6615 14.8266C17.6881 14.5758 17.7135 14.3237 17.7402 14.0604H2.90513H2.9064ZM17.6132 11.2387C17.6043 11.1936 17.6018 11.1735 17.5954 11.1547C17.4037 10.6104 17.2069 10.0674 17.0215 9.52067C16.9822 9.40529 16.9352 9.36015 16.8032 9.36015C12.4811 9.36391 8.1591 9.36391 3.83708 9.36015C3.71265 9.36015 3.66948 9.40153 3.63139 9.51314C3.37872 10.2518 3.11716 10.9879 2.85815 11.7241C2.73118 12.0852 2.60929 12.1705 2.21822 12.1743C1.94397 12.1768 1.66972 12.1705 1.39547 12.1805C1.12756 12.1906 0.957422 12.3724 0.952343 12.6345C0.945995 12.9392 1.14026 13.1148 1.4818 13.1148C7.37697 13.1148 13.2709 13.1148 19.166 13.1148C19.2295 13.1148 19.2943 13.1148 19.354 13.101C19.5914 13.0471 19.7196 12.8477 19.698 12.5781C19.6803 12.3611 19.4962 12.1755 19.2702 12.1743C18.5426 12.168 17.8138 12.168 17.085 12.168C12.9217 12.1693 8.75713 12.1718 4.59381 12.1743C4.51509 12.1743 4.4351 12.178 4.35638 12.1705C4.10879 12.1467 3.93865 11.9774 3.92342 11.7504C3.90818 11.5084 4.05039 11.319 4.30052 11.2676C4.40209 11.2463 4.51002 11.24 4.61413 11.24C8.87267 11.2387 13.1312 11.24 17.3898 11.24C17.4583 11.24 17.5256 11.24 17.6132 11.24V11.2387ZM16.4172 1.03942C16.3486 1.05948 16.2978 1.07202 16.2483 1.08833C15.5677 1.32409 14.8885 1.56362 14.2066 1.79562C13.116 2.16557 12.024 2.52925 10.9321 2.89794C10.5283 3.03464 10.202 3.26789 10.0052 3.65289C9.86557 3.92502 9.82621 4.21722 9.82621 4.51694C9.82621 5.33459 9.82748 6.1535 9.82875 6.97115C9.82875 7.44895 9.82875 7.92675 9.82875 8.42587C10.117 8.42587 10.3899 8.42085 10.6617 8.42837C10.7734 8.43088 10.8026 8.39953 10.8026 8.28666C10.8026 7.45271 10.8102 6.61876 10.814 5.78606C10.8153 5.30199 10.8077 4.81666 10.8115 4.33259C10.814 4.05168 10.9105 3.9175 11.1568 3.83348C12.3859 3.41336 13.6137 2.992 14.844 2.57565C15.4319 2.37625 16.0223 2.18563 16.6102 1.98624C16.6533 1.97119 16.7194 1.90472 16.713 1.8834C16.6229 1.60249 16.52 1.3266 16.4172 1.04067V1.03942Z" fill="#8BC53F"/>
<path d="M2.90508 14.0606H17.7376C17.7109 14.3227 17.6855 14.5748 17.6589 14.8268C17.5459 15.8828 17.4329 16.9387 17.3186 17.9946C17.1967 19.1182 17.0736 20.2406 16.9529 21.3643C16.8412 22.4001 16.732 23.4347 16.6203 24.4706C16.5085 25.5065 16.393 26.5411 16.2813 27.5757C16.1619 28.678 16.0426 29.7803 15.9321 30.8839C15.9181 31.0256 15.8762 31.0657 15.7353 31.0657C13.6555 31.0632 11.5771 31.0657 9.49731 31.0657C7.97241 31.0657 6.44751 31.0632 4.92262 31.0695C4.76898 31.0695 4.72327 31.0331 4.70804 30.8751C4.6217 29.9684 4.51758 29.063 4.41982 28.1575C4.32713 27.2985 4.23571 26.4395 4.1443 25.5792C4.05669 24.7666 3.96908 23.9539 3.88147 23.1413C3.80021 22.3801 3.71895 21.6188 3.63642 20.8589C3.54627 20.0262 3.45358 19.1922 3.36344 18.3595C3.2644 17.4428 3.1679 16.5273 3.07014 15.6106C3.02189 15.1654 2.97364 14.7202 2.92539 14.275C2.91778 14.2098 2.9127 14.1434 2.90381 14.0606H2.90508Z" fill="white"/>
<path d="M17.6119 11.2389C17.5243 11.2389 17.457 11.2389 17.3884 11.2389C13.1299 11.2389 8.87135 11.2389 4.61281 11.2389C4.5087 11.2389 4.40077 11.2465 4.2992 11.2665C4.04907 11.318 3.90686 11.5061 3.9221 11.7494C3.93734 11.9776 4.10748 12.1456 4.35506 12.1695C4.43379 12.177 4.51378 12.1732 4.5925 12.1732C8.75581 12.1707 12.9204 12.1682 17.0837 12.167C17.8125 12.167 18.54 12.167 19.2688 12.1732C19.4948 12.1757 19.679 12.3601 19.6967 12.577C19.7196 12.8467 19.5913 13.0448 19.3526 13.1C19.2917 13.1138 19.2269 13.1138 19.1647 13.1138C13.2696 13.1138 7.37566 13.1138 1.48049 13.1138C1.13894 13.1138 0.945947 12.9382 0.951026 12.6335C0.956104 12.3714 1.12624 12.1895 1.39415 12.1795C1.6684 12.1695 1.94265 12.1757 2.21691 12.1732C2.60797 12.1695 2.72986 12.0842 2.85683 11.723C3.11585 10.9869 3.3774 10.2507 3.63007 9.5121C3.66816 9.40048 3.71133 9.3591 3.83576 9.3591C8.15779 9.36286 12.4798 9.36286 16.8018 9.3591C16.9339 9.3591 16.9809 9.40299 17.0202 9.51962C17.2056 10.0664 17.4024 10.6094 17.5941 11.1537C17.6005 11.1725 17.603 11.1925 17.6119 11.2377V11.2389Z" fill="white"/>
<path d="M16.4171 1.03961C16.5186 1.32429 16.6215 1.60144 16.7129 1.88235C16.7205 1.90492 16.6532 1.97139 16.6101 1.98518C16.0222 2.18458 15.4318 2.3752 14.8439 2.57459C13.6136 2.9922 12.3858 3.41231 11.1567 3.83242C10.9104 3.91644 10.8139 4.05063 10.8114 4.33154C10.8076 4.81561 10.8152 5.30093 10.8139 5.785C10.8114 6.61895 10.8025 7.45291 10.8025 8.28561C10.8025 8.39847 10.7733 8.42982 10.6616 8.42732C10.3899 8.42105 10.1169 8.42481 9.82865 8.42481C9.82865 7.92569 9.82865 7.44789 9.82865 6.97009C9.82865 6.15244 9.82611 5.33354 9.82611 4.51589C9.82611 4.21616 9.86547 3.92397 10.0051 3.65183C10.2032 3.26684 10.5282 3.03358 10.932 2.89689C12.0227 2.52819 13.1159 2.16451 14.2065 1.79456C14.8884 1.56256 15.5676 1.32303 16.2482 1.08727C16.2965 1.07097 16.3472 1.05843 16.4171 1.03836V1.03961Z" fill="white"/>
</g>
<defs>
<clipPath id="clip0_1555_3137">
<rect width="20.6452" height="32" fill="white"/>
</clipPath>
</defs>
</svg>
