<svg width="32" height="32" viewBox="0 0 32 32" fill="none" xmlns="http://www.w3.org/2000/svg">
<path d="M11.0397 3.33425C11.8797 3.3598 12.6931 3.50646 13.4811 3.77446H13.5597C13.6131 3.7998 13.6531 3.8278 13.6797 3.85313C13.9744 3.9478 14.2531 4.05446 14.5197 4.20113L15.0264 4.4278C15.2264 4.53446 15.4664 4.73313 15.5997 4.81446C15.7331 4.89313 15.8797 4.97446 15.9997 5.06646C17.4811 3.93446 19.2797 3.32113 21.1331 3.33425C21.9744 3.33425 22.8144 3.45313 23.6131 3.72113C28.5344 5.32113 30.3077 10.7211 28.8264 15.4411C27.9864 17.8531 26.6131 20.0545 24.8144 21.8531C22.2397 24.3465 19.4144 26.5598 16.3731 28.4665L16.0397 28.6678L15.6931 28.4531C12.6411 26.5598 9.79974 24.3465 7.20107 21.8398C5.4144 20.0411 4.03974 17.8531 3.1864 15.4411C1.67974 10.7211 3.45307 5.32113 8.42774 3.69313C8.8144 3.5598 9.21307 3.46646 9.61307 3.41446H9.77307C10.1477 3.3598 10.5197 3.33425 10.8931 3.33425H11.0397ZM22.9197 7.5478C22.3731 7.3598 21.7731 7.65446 21.5731 8.21446C21.3864 8.77446 21.6797 9.3878 22.2397 9.58646C23.0944 9.90646 23.6664 10.7478 23.6664 11.6798V11.7211C23.6411 12.0265 23.7331 12.3211 23.9197 12.5478C24.1064 12.7745 24.3864 12.9065 24.6797 12.9345C25.2264 12.9198 25.6931 12.4811 25.7331 11.9198V11.7611C25.7731 9.89313 24.6411 8.20113 22.9197 7.5478Z" fill="white"/>
</svg>
