<svg width="32" height="32" viewBox="0 0 32 32" fill="none" xmlns="http://www.w3.org/2000/svg">
<g opacity="0.6">
<path fill-rule="evenodd" clip-rule="evenodd" d="M16.313 5.38534C18.481 4.01467 21.361 3.636 23.849 4.43334C29.261 6.17867 30.941 12.0787 29.4383 16.7733C27.1197 24.1467 17.217 29.6467 16.797 29.8773C16.6477 29.96 16.4823 30.0013 16.317 30.0013C16.1517 30.0013 15.9877 29.9613 15.8383 29.88C15.421 29.652 5.59032 24.2333 3.19432 16.7747L3.19299 16.7733C1.68899 12.0773 3.36366 6.176 8.77032 4.43334C11.309 3.612 14.0757 3.97334 16.313 5.38534ZM9.38366 6.33734C5.00899 7.748 3.91032 12.4533 5.09832 16.164C6.96766 21.98 14.353 26.6827 16.3157 27.8467C18.285 26.6707 25.7237 21.916 27.533 16.1693C28.721 12.4547 27.6183 7.74934 23.237 6.33734C21.1143 5.656 18.6383 6.07067 16.929 7.39334C16.5717 7.668 16.0757 7.67334 15.7157 7.40134C13.905 6.04 11.5397 5.64134 9.38366 6.33734ZM21.957 8.9852C23.7743 9.5732 25.0477 11.1825 25.2037 13.0852C25.2477 13.6359 24.8383 14.1185 24.2877 14.1625C24.2597 14.1652 24.233 14.1665 24.205 14.1665C23.689 14.1665 23.2517 13.7705 23.209 13.2479C23.121 12.1519 22.3877 11.2265 21.3437 10.8892C20.817 10.7185 20.529 10.1545 20.6983 9.63054C20.8703 9.1052 21.429 8.81987 21.957 8.9852Z" fill="white"/>
</g>
</svg>
