<svg width="32" height="32" viewBox="0 0 32 32" fill="none" xmlns="http://www.w3.org/2000/svg">
<path fill-rule="evenodd" clip-rule="evenodd" d="M18.2894 20.3883C19.8947 20.3883 21.2014 21.6857 21.2014 23.2803V27.3817C21.2014 27.7243 21.476 27.999 21.828 28.007H24.3694C26.372 28.007 28 26.399 28 24.423V12.791C27.9907 12.111 27.6667 11.471 27.1107 11.0457L18.32 4.03501C17.14 3.10034 15.4894 3.10034 14.3054 4.03768L5.57469 11.043C4.99735 11.4817 4.67335 12.1217 4.66669 12.8137V24.423C4.66669 26.399 6.29469 28.007 8.29735 28.007H10.8627C11.224 28.007 11.5174 27.7203 11.5174 27.3683C11.5174 27.291 11.5267 27.2137 11.5427 27.1403V23.2803C11.5427 21.695 12.8414 20.399 14.4347 20.3883H18.2894ZM24.3694 30.007H21.804C20.3347 29.9723 19.2014 28.819 19.2014 27.3817V23.2803C19.2014 22.7883 18.792 22.3883 18.2894 22.3883H14.4414C13.9494 22.391 13.5427 22.7923 13.5427 23.2803V27.3683C13.5427 27.4683 13.5294 27.5643 13.5014 27.655C13.3574 28.975 12.2294 30.007 10.8627 30.007H8.29735C5.19202 30.007 2.66669 27.5017 2.66669 24.423V12.8043C2.68002 11.479 3.29069 10.2657 4.34535 9.46701L13.0587 2.47368C14.9774 0.953677 17.6507 0.953677 19.5654 2.47101L28.3414 9.47101C29.372 10.2563 29.9827 11.467 30 12.7763V24.423C30 27.5017 27.4747 30.007 24.3694 30.007Z" fill="white"/>
</svg>
