<svg width="32" height="32" viewBox="0 0 32 32" fill="none" xmlns="http://www.w3.org/2000/svg">
<path d="M12.1797 27.6977V23.6208C12.1797 22.58 13.0296 21.7364 14.0779 21.7364H17.9102C18.4136 21.7364 18.8964 21.9349 19.2524 22.2883C19.6084 22.6417 19.8084 23.121 19.8084 23.6208V27.6977C19.8052 28.1304 19.9761 28.5465 20.2832 28.8535C20.5902 29.1606 21.0081 29.3333 21.4439 29.3333H24.0584C25.2795 29.3364 26.4517 28.8571 27.3162 28.001C28.1808 27.145 28.6667 25.9826 28.6667 24.7704V13.1558C28.6667 12.1766 28.2294 11.2477 27.4728 10.6195L18.5787 3.56778C17.0316 2.33137 14.8148 2.3713 13.3139 3.6626L4.62269 10.6195C3.83033 11.2292 3.35675 12.1608 3.33334 13.1558V24.7585C3.33334 27.2851 5.39652 29.3333 7.94157 29.3333H10.4964C11.4016 29.3333 12.1373 28.6082 12.1439 27.7096L12.1797 27.6977Z" fill="white"/>
</svg>
