<svg width="18" height="22" viewBox="0 0 18 22" fill="none" xmlns="http://www.w3.org/2000/svg">
<path d="M17.621 7.45C16.571 2.83 12.541 0.75 9.00101 0.75H8.99101C5.46101 0.75 1.42101 2.82 0.371011 7.44C-0.798989 12.6 2.36101 16.97 5.22101 19.72C6.23473 20.7012 7.59021 21.2498 9.00101 21.25C10.361 21.25 11.721 20.74 12.771 19.72C15.631 16.97 18.791 12.61 17.621 7.45ZM9.00101 12.46C8.58735 12.46 8.17773 12.3785 7.79556 12.2202C7.41338 12.0619 7.06613 11.8299 6.77362 11.5374C6.48112 11.2449 6.24909 10.8976 6.09079 10.5155C5.93249 10.1333 5.85101 9.72366 5.85101 9.31C5.85101 8.89634 5.93249 8.48672 6.09079 8.10455C6.24909 7.72237 6.48112 7.37512 6.77362 7.08261C7.06613 6.79011 7.41338 6.55808 7.79556 6.39978C8.17773 6.24148 8.58735 6.16 9.00101 6.16C9.83644 6.16 10.6377 6.49187 11.2284 7.08261C11.8191 7.67335 12.151 8.47457 12.151 9.31C12.151 10.1454 11.8191 10.9466 11.2284 11.5374C10.6377 12.1281 9.83644 12.46 9.00101 12.46Z" fill="#8BC53F"/>
</svg>
