<svg width="27" height="27" viewBox="0 0 27 27" fill="none" xmlns="http://www.w3.org/2000/svg">
<g clip-path="url(#clip0_1583_4478)">
<path d="M13.4382 26.9989C9.76888 26.9989 6.10066 27.0021 2.43138 26.9968C1.47574 26.9958 0.756898 26.559 0.283307 25.7352C0.0739963 25.3703 0.00316903 24.959 0.00316903 24.5423C-2.34587e-06 18.4879 -0.00317372 12.4335 0.00739752 6.37907C0.00845465 5.70436 0.195566 5.05503 0.569787 4.48396C1.32457 3.33019 2.0931 2.18593 2.86057 1.04062C3.22423 0.497043 3.72953 0.154401 4.3786 0.0444166C4.57206 0.0116329 4.77185 0.00317261 4.96954 0.00317261C10.6674 0 16.3664 0.00211508 22.0653 0C22.7726 0 23.4047 0.188242 23.8868 0.730759C24.0749 0.943324 24.2356 1.18233 24.3942 1.41816C25.0263 2.35831 25.6469 3.30586 26.2833 4.24284C26.7727 4.96408 27 5.75724 27 6.62336C26.9989 11.5885 27 16.5536 27 21.5188C27 22.5118 27 23.5048 27 24.4979C27 24.9336 26.9355 25.3545 26.7188 25.7415C26.3034 26.485 25.668 26.8879 24.8266 26.9736C24.6352 26.9926 24.4407 26.9979 24.2483 26.9979C20.6456 26.9989 17.0429 26.9979 13.4392 26.9979L13.4382 26.9989ZM1.58357 6.33465V6.46156C1.58357 12.5202 1.58357 18.5799 1.58357 24.6385C1.58357 24.9917 1.80979 25.3005 2.15336 25.3873C2.29079 25.4222 2.43984 25.4148 2.58361 25.4148C9.83336 25.4158 17.0831 25.4148 24.3329 25.4158C24.4079 25.4158 24.4819 25.4169 24.557 25.419C25.0898 25.4317 25.4164 25.1134 25.4164 24.5793C25.4164 18.546 25.4164 12.5138 25.4164 6.48059C25.4164 6.43406 25.4164 6.38647 25.4164 6.33359H1.58357V6.33465ZM24.7378 4.73883C24.7092 4.69335 24.6923 4.66268 24.6733 4.63413C24.3572 4.1593 24.0411 3.6834 23.725 3.20963C23.4396 2.78238 23.1552 2.35514 22.8666 1.93001C22.7165 1.70898 22.5125 1.58313 22.2377 1.58313C19.6287 1.58313 17.0186 1.58313 14.4097 1.58102C14.2987 1.58102 14.2796 1.62121 14.2796 1.7185C14.2828 2.63221 14.2828 3.54592 14.2839 4.45964C14.2839 4.55059 14.2839 4.64153 14.2839 4.73988H24.7367L24.7378 4.73883ZM12.7119 1.58313C12.6464 1.58313 12.5988 1.58313 12.5512 1.58313C9.98559 1.58313 7.41889 1.58631 4.85325 1.57996C4.52554 1.57996 4.28558 1.70158 4.1101 1.96702C3.99381 2.14257 3.88704 2.32447 3.7697 2.49896C3.31408 3.17684 2.85635 3.85261 2.39967 4.52944C2.35527 4.59606 2.31193 4.66374 2.26119 4.73988H12.7119V1.58313Z" fill="white"/>
<path d="M1.58356 6.33466H25.4175C25.4175 6.38753 25.4175 6.43512 25.4175 6.48165C25.4175 12.5149 25.4175 18.5471 25.4175 24.5804C25.4175 25.1144 25.0908 25.4327 24.558 25.42C24.483 25.4179 24.409 25.4169 24.3339 25.4169C17.0842 25.4169 9.83441 25.4169 2.58465 25.4158C2.44088 25.4158 2.29077 25.4222 2.1544 25.3883C1.81084 25.3016 1.58461 24.9928 1.58461 24.6396C1.58461 18.5809 1.58461 12.5213 1.58461 6.46262V6.33571L1.58356 6.33466ZM13.4677 9.49141C13.4677 9.49141 13.4677 9.49564 13.4677 9.49775C12.3874 9.49775 11.307 9.48929 10.2255 9.49987C8.80054 9.51256 7.74765 10.8419 7.93159 12.1606C8.09438 13.3282 9.09231 14.2334 10.2985 14.2355C12.4074 14.2408 14.5154 14.2387 16.6243 14.2355C17.1117 14.2355 17.58 14.1287 17.9901 13.8601C18.7417 13.3652 19.1308 12.6534 19.0821 11.7556C19.0356 10.8926 18.6138 10.2253 17.859 9.7854C17.4679 9.55697 17.0355 9.49352 16.5915 9.49246C15.5503 9.49035 14.509 9.49246 13.4677 9.49246V9.49141Z" fill="#FFA502"/>
<path d="M24.7378 4.73882H14.2849C14.2849 4.64047 14.2849 4.54952 14.2849 4.45857C14.2849 3.54486 14.2849 2.63115 14.2807 1.71744C14.2807 1.62014 14.2997 1.57996 14.4107 1.57996C17.0197 1.58313 19.6297 1.58313 22.2387 1.58207C22.5125 1.58207 22.7176 1.70898 22.8677 1.92894C23.1553 2.35407 23.4407 2.78132 23.7261 3.20856C24.0432 3.6834 24.3583 4.15823 24.6743 4.63307C24.6934 4.66162 24.7103 4.69123 24.7388 4.73776L24.7378 4.73882Z" fill="#FFA502"/>
<path d="M12.7119 1.58314V4.73989H2.26117C2.31191 4.66374 2.35525 4.59606 2.39965 4.52944C2.85633 3.85261 3.31406 3.17684 3.76969 2.49896C3.88703 2.32447 3.9938 2.14257 4.11008 1.96702C4.28556 1.70158 4.52659 1.57891 4.85324 1.57996C7.41888 1.58631 9.98557 1.58314 12.5512 1.58314C12.5988 1.58314 12.6464 1.58314 12.7119 1.58314Z" fill="#FFA502"/>
<path d="M13.4677 9.49245C14.509 9.49245 15.5503 9.49139 16.5915 9.49245C17.0355 9.49245 17.4668 9.55696 17.859 9.78539C18.6149 10.2264 19.0356 10.8926 19.0821 11.7556C19.1308 12.6545 18.7417 13.3662 17.9901 13.8601C17.581 14.1298 17.1117 14.2355 16.6243 14.2355C14.5154 14.2387 12.4075 14.2408 10.2985 14.2355C9.09231 14.2323 8.09545 13.3281 7.93159 12.1606C7.74765 10.8419 8.80055 9.51254 10.2256 9.49985C11.3059 9.49034 12.3863 9.49774 13.4677 9.49774C13.4677 9.49562 13.4677 9.49351 13.4677 9.49139V9.49245ZM13.5005 12.6577C14.5851 12.6587 15.6697 12.664 16.7543 12.6577C17.1878 12.6545 17.5134 12.3002 17.5038 11.8698C17.4933 11.4045 17.1751 11.0756 16.7321 11.0756C14.5756 11.0756 12.4191 11.0756 10.2636 11.0756C10.2076 11.0756 10.1484 11.0788 10.0945 11.0914C9.68536 11.1898 9.44116 11.5578 9.49719 11.9861C9.54688 12.3647 9.88939 12.6566 10.2858 12.6566C11.3577 12.6566 12.4286 12.6566 13.5005 12.6566V12.6577Z" fill="white"/>
<path d="M13.5005 12.6577C12.4286 12.6577 11.3578 12.6577 10.2858 12.6577C9.88941 12.6577 9.5469 12.3658 9.49721 11.9872C9.44119 11.5589 9.68538 11.1909 10.0945 11.0925C10.1495 11.0798 10.2076 11.0767 10.2636 11.0767C12.4202 11.0767 14.5767 11.0767 16.7322 11.0767C17.1751 11.0767 17.4944 11.4056 17.5039 11.8709C17.5134 12.3013 17.1878 12.6556 16.7544 12.6587C15.6698 12.6651 14.5852 12.6609 13.5005 12.6609V12.6577Z" fill="#FFA502"/>
</g>
<defs>
<clipPath id="clip0_1583_4478">
<rect width="27" height="27" fill="white"/>
</clipPath>
</defs>
</svg>
