<svg width="32" height="32" viewBox="0 0 32 32" fill="none" xmlns="http://www.w3.org/2000/svg">
<g clip-path="url(#clip0_1555_3108)">
<path d="M20.3286 32C19.0492 31.9624 17.7848 31.8221 16.5317 31.5603C13.6998 30.9715 11.0858 29.8766 8.72503 28.1992C7.26143 27.1607 5.93817 25.9668 4.80413 24.5738C4.04476 23.6417 3.34178 22.6671 2.7403 21.6223C1.66766 19.7607 0.922079 17.7789 0.470968 15.6793C0.130131 14.0896 -0.0077095 12.4848 0.00106239 10.8613C0.00858116 9.53836 0.765444 8.72659 1.62255 8.41215C2.51224 8.08519 3.34429 8.21923 4.0811 8.82556C4.19639 8.92076 4.2816 8.92953 4.41192 8.88444C5.58355 8.47228 6.75644 8.06639 7.92932 7.65675C9.78389 7.00908 11.6372 6.36267 13.4905 5.71375C15.3689 5.05606 17.2435 4.39211 19.1231 3.73693C21.5716 2.88256 24.0214 2.0357 26.47 1.18384C27.4662 0.83683 28.4624 0.491076 29.456 0.136549C30.2279 -0.139053 30.9171 1.90735e-06 31.4735 0.587536C32.0111 1.15503 32.1314 1.83276 31.8607 2.58315C31.4184 3.81459 30.9961 5.05355 30.565 6.28876C29.5024 9.33292 28.4411 12.3783 27.3784 15.4225C26.7494 17.2264 26.1191 19.0304 25.4875 20.8331C24.7031 23.073 23.9174 25.3116 23.1242 27.5478C23.0678 27.7069 23.0829 27.7996 23.1881 27.9286C24.3836 29.3843 23.5716 31.6041 21.7145 31.9261C21.2621 32.005 20.791 31.9787 20.3286 32ZM8.77265 8.67523C8.73756 8.68274 8.71626 8.684 8.69746 8.69026C8.03082 8.92578 7.36669 9.1638 6.6988 9.39555C6.14493 9.58848 5.58731 9.77388 5.03219 9.9643C4.96202 9.9881 4.87431 9.99311 4.90814 10.1146C5.02843 10.5468 5.00713 10.9903 5.00588 11.4325C5.00463 12.3395 5.09234 13.239 5.24021 14.1334C5.47328 15.544 5.95697 16.8744 6.5597 18.1635C7.02585 19.1607 7.61731 20.0827 8.28771 20.9571C9.26386 22.2286 10.443 23.2834 11.7412 24.2105C12.8564 25.006 14.0669 25.621 15.3601 26.077C16.642 26.5293 17.9552 26.8324 19.3111 26.9226C20.202 26.9815 21.0942 27.0078 22.004 27.0492C22.5829 25.3943 23.1743 23.7006 23.767 22.0044C21.9877 21.8841 20.7271 21.0435 20.1882 19.3436C19.7246 17.8804 20.0654 16.5249 21.222 15.5027C22.7608 14.1422 24.4249 14.1848 26.1053 15.3097C26.1153 15.2859 26.1241 15.2684 26.1304 15.2509C26.3196 14.7072 26.5075 14.1622 26.698 13.6185C27.0288 12.6727 27.3621 11.7269 27.693 10.7811C28.2982 9.05105 28.9022 7.31976 29.5074 5.58973C29.7981 4.75665 30.0914 3.92358 30.3808 3.08926C30.5024 2.741 30.6302 2.39399 30.7329 2.04072C30.8344 1.69496 30.6314 1.34294 30.2868 1.27153C30.1465 1.24272 29.9823 1.259 29.8445 1.30536C29.2443 1.50705 28.6503 1.73129 28.0526 1.93924C26.5226 2.47291 24.9913 3.00282 23.46 3.53523C21.91 4.07391 20.3599 4.61384 18.8098 5.15377C17.9515 5.45318 17.0931 5.75258 16.2348 6.05199C16.0493 6.11713 15.8651 6.18228 15.6734 6.24867C16.2611 7.27341 16.4465 8.33824 16.0506 9.45067C15.6571 10.5568 14.9077 11.3473 13.7963 11.7632C12.795 12.1378 11.8026 12.0576 10.8565 11.6016C9.64354 11.0179 9.00322 9.99311 8.7739 8.67648L8.77265 8.67523ZM20.3524 30.7222C20.712 30.7222 21.0754 30.7573 21.4288 30.7147C22.0842 30.637 22.5491 30.0407 22.5014 29.3993C22.4513 28.7354 21.905 28.2305 21.2283 28.233C20.296 28.2368 19.3662 28.2142 18.4402 28.0839C16.9816 27.8772 15.5631 27.529 14.1998 26.9677C11.7775 25.9693 9.70369 24.4773 7.96692 22.518C7.26018 21.7213 6.66246 20.8456 6.10609 19.9399C4.87932 17.9443 4.20892 15.7582 3.88437 13.4557C3.75906 12.5675 3.73901 11.673 3.7528 10.7773C3.75405 10.6696 3.74277 10.5581 3.71771 10.4529C3.57736 9.84028 2.96711 9.42186 2.33055 9.49828C1.75037 9.56718 1.26166 10.1184 1.2554 10.7159C1.24412 11.8509 1.2767 12.9834 1.4371 14.1096C1.62255 15.415 1.92455 16.689 2.37816 17.9305C2.85935 19.2484 3.47712 20.4986 4.19889 21.6975C4.72895 22.5769 5.36927 23.3761 6.03717 24.1566C6.88926 25.1513 7.85915 26.0169 8.88668 26.8149C10.1084 27.7632 11.4542 28.5124 12.864 29.1412C14.1885 29.7313 15.5694 30.1447 17.0004 30.399C18.1106 30.5957 19.2259 30.6997 20.3511 30.7235L20.3524 30.7222ZM23.8372 20.7354C23.8736 20.7354 23.9099 20.7354 23.9462 20.7354C24.2094 20.7278 24.2131 20.7303 24.2996 20.4785C24.4387 20.0764 24.5678 19.6705 24.7081 19.2684C25.0013 18.4303 25.2983 17.5935 25.5966 16.7579C25.6341 16.6539 25.6354 16.5763 25.5477 16.4936C24.9575 15.9374 24.267 15.6705 23.4538 15.7682C21.9726 15.9449 20.8737 17.3467 21.3699 19.0103C21.6882 20.0764 22.6693 20.7366 23.8347 20.7366L23.8372 20.7354ZM15.0067 8.23927C15.0067 7.72565 14.8501 7.26214 14.5782 6.82869C14.498 6.70091 14.4241 6.68086 14.2887 6.72972C13.7424 6.92891 13.1923 7.12183 12.6434 7.31225C11.8139 7.60038 10.9843 7.886 10.1523 8.16787C10.037 8.2067 9.9919 8.25681 9.99942 8.3896C10.0871 9.88537 11.5069 10.984 12.9818 10.6946C14.1584 10.4629 15.0042 9.43689 15.0067 8.23927Z" fill="#8BC53F"/>
<path d="M8.77283 8.67522C9.00214 9.9931 9.64247 11.0166 10.8555 11.6004C11.8015 12.0564 12.794 12.1353 13.7952 11.762C14.9079 11.3461 15.656 10.5568 16.0495 9.44942C16.4455 8.33698 16.26 7.2709 15.6723 6.24741C15.8628 6.17976 16.0482 6.11462 16.2337 6.05073C17.0921 5.75133 17.9504 5.45192 18.8088 5.15252C20.3588 4.61259 21.9089 4.07265 23.459 3.53398C24.9902 3.00156 26.5215 2.47291 28.0515 1.93798C28.6505 1.72878 29.2432 1.50579 29.8434 1.3041C29.98 1.25775 30.1454 1.24146 30.2858 1.27028C30.6316 1.34168 30.8334 1.69245 30.7319 2.03946C30.6291 2.39273 30.5013 2.73974 30.3798 3.088C30.0903 3.92233 29.7971 4.75414 29.5064 5.58847C28.9011 7.3185 28.2971 9.04979 27.6919 10.7798C27.3611 11.7256 27.0278 12.6715 26.6969 13.6173C26.5065 14.161 26.3185 14.7059 26.1293 15.2496C26.123 15.2671 26.1143 15.2847 26.1042 15.3085C24.4238 14.1835 22.7597 14.1409 21.221 15.5014C20.0656 16.5236 19.7235 17.8791 20.1872 19.3423C20.726 21.0423 21.9866 21.8829 23.766 22.0031C23.1733 23.6993 22.5806 25.393 22.0029 27.0479C21.0944 27.0066 20.201 26.9803 19.31 26.9214C17.9529 26.8324 16.6409 26.528 15.359 26.0758C14.0646 25.6198 12.8541 25.0047 11.7401 24.2092C10.4419 23.2834 9.26278 22.2274 8.28663 20.9558C7.61623 20.0814 7.02478 19.1607 6.55863 18.1622C5.95715 16.8732 5.47221 15.544 5.23913 14.1322C5.09127 13.2377 5.00355 12.3382 5.00481 11.4313C5.00481 10.989 5.02736 10.5456 4.90706 10.1134C4.87323 9.99185 4.96095 9.98684 5.03112 9.96304C5.58624 9.77262 6.14386 9.58722 6.69772 9.3943C7.36436 9.16254 8.02975 8.92452 8.69639 8.689C8.71519 8.68274 8.73649 8.68149 8.77158 8.67397L8.77283 8.67522ZM10.0059 18.2512C10.0059 19.6342 11.1261 20.7328 12.5383 20.7366C13.8566 20.7404 15.0044 19.5954 15.0057 18.275C15.0057 16.8769 13.8917 15.7319 12.517 15.7432C11.1011 15.7557 10.0084 16.8494 10.0059 18.2499V18.2512ZM26.2546 7.62918C26.2546 6.59693 25.41 5.74757 24.3837 5.74757C23.3437 5.74757 22.5041 6.59192 22.5066 7.6367C22.5091 8.66645 23.35 9.49076 24.4013 9.49452C25.405 9.49827 26.2559 8.64265 26.2559 7.63044L26.2546 7.62918ZM16.9292 13.2415C16.6059 13.244 16.3527 13.4569 16.2826 13.73C16.2324 13.9242 16.3076 14.0883 16.3866 14.2524C16.6384 14.7711 16.8903 15.2897 17.1484 15.8046C17.3026 16.1102 17.458 16.4172 17.6334 16.7103C17.7549 16.9132 17.9617 16.9997 18.196 16.9721C18.4542 16.9421 18.6346 16.8018 18.7236 16.5487C18.7937 16.3508 18.716 16.1804 18.6371 16.0113C18.4692 15.6542 18.2975 15.2997 18.1208 14.9464C17.889 14.4817 17.6534 14.0194 17.4128 13.5597C17.3026 13.3479 17.1096 13.2565 16.9279 13.2415H16.9292ZM18.0644 21.9856C17.9943 22.0119 17.8552 22.052 17.7261 22.1146C17.2963 22.3238 16.8703 22.5393 16.4455 22.756C16.0708 22.9464 15.6911 23.1293 15.3265 23.3373C15.0044 23.5227 14.9292 23.881 15.1172 24.1841C15.2901 24.4635 15.6222 24.5474 15.968 24.3821C16.4217 24.1641 16.8715 23.9374 17.3214 23.7106C17.6923 23.5227 18.0619 23.3348 18.4266 23.1356C18.6797 22.9966 18.8063 22.7059 18.7386 22.4654C18.6584 22.181 18.4141 21.9856 18.0657 21.9856H18.0644ZM22.5342 11.9787C22.5342 11.9787 22.5342 11.9875 22.5342 11.9925C22.3412 11.9925 22.1495 11.9875 21.9565 11.9925C21.553 12.005 21.2573 12.2781 21.2623 12.6264C21.2673 12.9709 21.5605 13.2327 21.959 13.2402C22.2861 13.2452 22.6144 13.244 22.9414 13.2402C23.0555 13.239 23.1708 13.2302 23.281 13.2039C23.5655 13.1362 23.7572 12.8857 23.7547 12.6038C23.7522 12.3219 23.5567 12.0701 23.2635 12.0238C23.0241 11.9862 22.7773 11.9912 22.5342 11.9774V11.9787ZM8.76155 13.2264C8.51595 13.2415 8.2528 13.2327 7.99968 13.2778C7.65382 13.3404 7.44832 13.6975 7.53979 14.0219C7.61999 14.3075 7.87186 14.4842 8.21897 14.4892C8.57233 14.4942 8.9257 14.4929 9.27907 14.4892C9.37681 14.4879 9.47581 14.4691 9.56979 14.4416C9.84296 14.3589 10.0184 14.1071 10.0059 13.829C9.99333 13.5609 9.80036 13.3191 9.52092 13.2753C9.27657 13.2377 9.0247 13.2427 8.76155 13.2277V13.2264ZM18.1296 10.7422C17.8051 10.7447 17.5168 11.0366 17.5143 11.3674C17.5106 11.6906 17.8251 11.9937 18.1547 11.9862C18.488 11.9774 18.7612 11.6906 18.7574 11.3523C18.7536 11.0266 18.4592 10.7397 18.1309 10.7422H18.1296Z" fill="white"/>
<path d="M20.3526 30.7222C19.2273 30.6971 18.1121 30.5944 17.0018 30.3977C15.5708 30.1434 14.1912 29.73 12.8654 29.14C11.4544 28.5124 10.1086 27.762 8.88812 26.8136C7.85934 26.0157 6.89071 25.15 6.03861 24.1553C5.36946 23.3749 4.72913 22.5756 4.20033 21.6962C3.47856 20.4973 2.86079 19.2458 2.3796 17.9292C1.92599 16.689 1.62399 15.415 1.43854 14.1084C1.27814 12.9821 1.24556 11.8497 1.25684 10.7147C1.26311 10.1171 1.75181 9.56717 2.33199 9.49702C2.96855 9.4206 3.5788 9.83902 3.71915 10.4516C3.74296 10.5568 3.75549 10.6671 3.75423 10.7761C3.74045 11.6718 3.7605 12.5675 3.88581 13.4544C4.2091 15.757 4.8795 17.943 6.10753 19.9386C6.66389 20.8443 7.26287 21.72 7.96836 22.5168C9.70513 24.476 11.7777 25.9681 14.2012 26.9665C15.5633 27.5277 16.983 27.8772 18.4416 28.0827C19.3677 28.2142 20.2974 28.2368 21.2297 28.2318C21.9064 28.2292 22.454 28.7328 22.5029 29.3981C22.5505 30.0395 22.0856 30.6358 21.4302 30.7134C21.0756 30.756 20.7122 30.7209 20.3538 30.7209L20.3526 30.7222Z" fill="white"/>
<path d="M23.8374 20.7366C22.6721 20.7366 21.6909 20.0764 21.3726 19.0103C20.8764 17.3454 21.9753 15.9449 23.4565 15.7682C24.2685 15.6705 24.9602 15.9374 25.5504 16.4936C25.6381 16.5763 25.6356 16.6552 25.5993 16.7579C25.301 17.5935 25.004 18.4303 24.7108 19.2684C24.5705 19.6705 24.4414 20.0764 24.3023 20.4786C24.2159 20.7291 24.2108 20.7278 23.9489 20.7354C23.9126 20.7354 23.8763 20.7354 23.8399 20.7354L23.8374 20.7366Z" fill="white"/>
<path d="M15.0069 8.24053C15.0044 9.43815 14.1586 10.4641 12.9819 10.6959C11.5058 10.9853 10.0873 9.88663 9.9996 8.39086C9.99209 8.25932 10.0372 8.20921 10.1525 8.16912C10.9833 7.88726 11.8141 7.60163 12.6436 7.3135C13.1937 7.12309 13.7426 6.93016 14.2889 6.73098C14.423 6.68212 14.4969 6.70091 14.5784 6.82994C14.8503 7.26339 15.0057 7.72816 15.0069 8.24053Z" fill="white"/>
<path d="M10.0046 18.2499C10.0071 16.8494 11.0998 15.7545 12.5158 15.7432C13.8904 15.7319 15.0057 16.8769 15.0044 18.275C15.0044 19.5941 13.8553 20.7391 12.5371 20.7366C11.1236 20.7329 10.0034 19.633 10.0046 18.2512V18.2499ZM12.5183 16.9847C11.8441 16.9709 11.2702 17.5271 11.259 18.2061C11.2464 18.9239 11.7627 19.4638 12.4569 19.4964C13.19 19.5302 13.7325 18.8575 13.7589 18.3426C13.8002 17.5547 13.1248 16.9558 12.5183 16.9847Z" fill="#8BC53F"/>
<path d="M26.2546 7.62918C26.2546 8.6414 25.4038 9.49702 24.4 9.49326C23.3487 9.4895 22.5079 8.6652 22.5054 7.63544C22.5029 6.59066 23.3437 5.74631 24.3825 5.74631C25.4088 5.74631 26.2534 6.59692 26.2534 7.62793L26.2546 7.62918ZM25.004 7.6605C25.0065 7.28217 24.7371 7.00156 24.3687 6.9978C24.0254 6.99404 23.7585 7.26213 23.7572 7.60914C23.7572 7.97243 24.0153 8.25054 24.3549 8.25305C24.7183 8.25555 25.0015 7.99749 25.004 7.6605Z" fill="#8BC53F"/>
<path d="M16.9292 13.2415C17.1109 13.2565 17.3038 13.348 17.4141 13.5597C17.6547 14.0194 17.889 14.4829 18.1221 14.9464C18.2988 15.2997 18.4705 15.6542 18.6384 16.0113C18.7173 16.1804 18.795 16.3508 18.7248 16.5487C18.6359 16.8018 18.4554 16.9433 18.1973 16.9721C17.963 16.9984 17.7562 16.912 17.6347 16.7103C17.4592 16.4172 17.3038 16.1102 17.1497 15.8046C16.8916 15.2897 16.6384 14.7711 16.3878 14.2524C16.3089 14.0896 16.2337 13.9242 16.2838 13.73C16.354 13.4569 16.6071 13.244 16.9304 13.2415H16.9292Z" fill="#8BC53F"/>
<path d="M18.0645 21.9856C18.4141 21.9856 18.6584 22.181 18.7374 22.4654C18.805 22.7059 18.6785 22.9966 18.4254 23.1356C18.0607 23.3348 17.6911 23.524 17.3201 23.7106C16.8715 23.9386 16.4217 24.1654 15.9668 24.3821C15.621 24.5474 15.2889 24.4635 15.116 24.1842C14.928 23.881 15.0032 23.5227 15.3252 23.3373C15.6899 23.1281 16.0696 22.9464 16.4442 22.756C16.8703 22.5393 17.2963 22.3238 17.7249 22.1146C17.854 22.052 17.993 22.0119 18.0632 21.9856H18.0645Z" fill="#8BC53F"/>
<path d="M22.5342 11.98C22.7773 11.9937 23.0242 11.9887 23.2635 12.0263C23.5567 12.0727 23.7522 12.3232 23.7547 12.6063C23.7572 12.8882 23.5655 13.1387 23.281 13.2064C23.1708 13.2327 23.0555 13.2402 22.9415 13.2427C22.6144 13.2477 22.2861 13.249 21.959 13.2427C21.5606 13.2365 21.2673 12.9734 21.2623 12.6289C21.2573 12.2806 21.553 12.0075 21.9565 11.995C22.1483 11.9887 22.3412 11.995 22.5342 11.995C22.5342 11.99 22.5342 11.9862 22.5342 11.9812V11.98Z" fill="#8BC53F"/>
<path d="M8.76031 13.2277C9.02345 13.2427 9.27532 13.2377 9.51968 13.2753C9.79911 13.3179 9.99334 13.5609 10.0046 13.829C10.0171 14.1059 9.84172 14.3577 9.56855 14.4416C9.47582 14.4704 9.37557 14.4879 9.27783 14.4892C8.92446 14.4942 8.57109 14.4955 8.21772 14.4892C7.86936 14.4854 7.61875 14.3076 7.53855 14.0219C7.44707 13.6975 7.65258 13.3404 7.99843 13.2778C8.25156 13.2327 8.5147 13.2402 8.76031 13.2264V13.2277Z" fill="#8BC53F"/>
<path d="M18.1284 10.7435C18.4579 10.741 18.7511 11.0279 18.7549 11.3536C18.7587 11.6918 18.4867 11.9787 18.1522 11.9875C17.8226 11.9962 17.5081 11.6931 17.5118 11.3686C17.5156 11.0379 17.8038 10.746 18.1271 10.7435H18.1284Z" fill="#8BC53F"/>
<path d="M12.5196 16.9846C13.1261 16.9558 13.8015 17.5546 13.7601 18.3426C13.7326 18.8575 13.1912 19.5302 12.4582 19.4964C11.764 19.4638 11.2477 18.9239 11.2602 18.2061C11.2715 17.5283 11.8454 16.9709 12.5196 16.9846Z" fill="white"/>
<path d="M25.004 7.6605C25.0015 7.99749 24.7183 8.25555 24.3549 8.25305C24.0141 8.25054 23.756 7.97244 23.7572 7.60914C23.7572 7.26338 24.0254 6.9953 24.3687 6.9978C24.7371 7.00156 25.0065 7.28218 25.004 7.6605Z" fill="white"/>
</g>
<defs>
<clipPath id="clip0_1555_3108">
<rect width="32" height="32" fill="white" transform="matrix(-1 0 0 -1 32 32)"/>
</clipPath>
</defs>
</svg>
