<svg width="37" height="27" viewBox="0 0 37 27" fill="none" xmlns="http://www.w3.org/2000/svg">
<g clip-path="url(#clip0_1583_4485)">
<rect width="37" height="27" fill="#6FCF97"/>
<path d="M34.4523 25.5783C34.9999 25.5783 35.5345 25.5769 36.0676 25.5798C36.1806 25.5798 36.2964 25.5912 36.4065 25.614C36.7339 25.681 36.9831 25.9705 36.9875 26.2771C36.9918 26.5822 36.7484 26.8831 36.4297 26.9601C36.3254 26.9843 36.2153 26.9986 36.1081 26.9986C24.3523 27 12.5951 27 0.839258 26.9986C0.368446 26.9986 0.0352566 26.7405 0.00193759 26.3569C-0.03283 25.9491 0.291668 25.6168 0.763928 25.5812C0.84795 25.5755 0.931972 25.5783 1.01599 25.5783C2.41829 25.5783 3.82058 25.5783 5.22433 25.5783C5.28951 25.5783 5.3547 25.5783 5.4706 25.5783C4.73178 24.7513 4.38411 23.8102 4.33341 22.7379H4.13349C3.50767 22.7379 2.88186 22.7422 2.25604 22.7379C1.18838 22.7279 0.394522 22.1689 0.103343 21.2007C0.0338079 20.9726 0.00628355 20.723 0.00628355 20.4835C0.000488942 14.3605 0.000488942 8.24045 0.00338624 2.11893C0.00338624 1.04521 0.846501 0.134037 1.9272 0.0342223C2.1358 0.0142593 2.3473 0.00285186 2.55736 0.00285186C9.26317 0.00142593 15.969 0.00285186 22.6748 0C23.6497 0 24.3567 0.407816 24.7956 1.2648C24.9564 1.57993 24.997 1.9193 24.997 2.26438C24.997 3.79725 24.997 5.33155 24.997 6.86443V7.10684H25.2099C27.0874 7.10684 28.9663 7.10684 30.8437 7.10684C31.526 7.10684 32.1605 7.24943 32.6067 7.79699C32.8487 8.09358 33.0471 8.43295 33.221 8.77375C34.3639 11.0068 35.4924 13.2455 36.6325 15.4799C36.8774 15.959 37.0121 16.4453 36.9976 16.9928C36.9686 18.1407 36.9831 19.29 36.9903 20.4379C36.9976 21.4332 36.5746 22.1533 35.6402 22.5668C35.5982 22.5853 35.5475 22.6481 35.5475 22.6908C35.5417 23.7703 35.1737 24.7157 34.4596 25.5327C34.4567 25.537 34.4567 25.5441 34.4509 25.5798L34.4523 25.5783ZM23.5527 21.3091C23.5527 21.2236 23.5527 21.1537 23.5527 21.0838C23.5527 14.8382 23.5527 8.59123 23.5527 2.34566C23.5527 2.2929 23.5556 2.23871 23.5527 2.18595C23.515 1.72395 23.2789 1.41595 22.7385 1.41738C15.9545 1.4245 9.17045 1.42165 2.38497 1.42165C2.31254 1.42165 2.2401 1.42165 2.16767 1.42308C1.71714 1.44162 1.44769 1.71825 1.44769 2.16171C1.44769 6.58495 1.44769 11.0068 1.44769 15.43V15.6296C1.53606 15.6296 1.60125 15.6296 1.66644 15.6296C2.26908 15.6296 2.87027 15.6268 3.47291 15.6296C4.02919 15.6325 4.3363 15.9334 4.33775 16.4766C4.3392 17.335 4.3392 18.1935 4.33775 19.0519C4.33775 19.5823 4.02774 19.8889 3.4845 19.8917C2.87606 19.8946 2.26908 19.8917 1.66064 19.8917H1.44914C1.44914 20.1256 1.44624 20.3438 1.44914 20.5605C1.45493 21.0082 1.7577 21.3077 2.20968 21.3105C2.70367 21.3148 3.19621 21.3105 3.6902 21.3105C3.99587 21.3105 4.30298 21.3105 4.6043 21.3105C5.26634 19.4711 6.94967 18.51 8.55767 18.4701C9.47467 18.4473 10.3163 18.7111 11.0812 19.1973C11.8794 19.7049 12.4169 20.425 12.737 21.3048H23.5527V21.3091ZM35.5446 17.0527H35.2896C32.6531 17.0527 30.018 17.0527 27.3814 17.0527C27.3206 17.0527 27.2612 17.0556 27.2004 17.0527C26.7426 17.0256 26.4427 16.7347 26.4413 16.3112C26.4398 14.4646 26.4384 12.6181 26.4413 10.7715C26.4413 10.2667 26.7469 9.96583 27.2583 9.95014C27.3119 9.94872 27.367 9.95014 27.4206 9.95014C28.9489 9.95014 30.4772 9.95014 32.007 9.95014C32.0693 9.95014 32.1316 9.95014 32.2301 9.95014C32.0432 9.59081 31.8708 9.26712 31.7057 8.94059C31.5579 8.64827 31.3189 8.52707 30.9915 8.52707C29.059 8.53134 27.1279 8.52849 25.1954 8.52849H25.0115V21.3077H27.1482C27.732 19.6393 29.3777 18.4515 31.1552 18.4829C33.0877 18.5171 34.4581 19.4426 35.252 21.1908C35.4577 21.0068 35.5446 20.8043 35.5431 20.5591C35.5402 19.8433 35.5431 19.126 35.5431 18.4102C35.5431 17.9667 35.5431 17.5233 35.5431 17.0556L35.5446 17.0527ZM28.0015 25.5669C27.267 24.747 26.9222 23.8045 26.8759 22.7464H13.0021C12.9848 23.8159 12.6284 24.7527 11.8809 25.5669H28.0015ZM35.0999 15.6196C35.0767 15.5626 35.0607 15.5198 35.0405 15.4785C34.3726 14.1638 33.7019 12.8491 33.037 11.5315C32.9747 11.4074 32.9081 11.3632 32.7661 11.3632C31.2015 11.3689 29.6384 11.3661 28.0739 11.3675C28.016 11.3675 27.958 11.3732 27.8986 11.3761V15.6196H35.0984H35.0999ZM8.56636 25.5684C10.1092 25.6625 11.4564 24.4604 11.552 22.8848C11.6404 21.4417 10.5597 19.9916 8.7938 19.9017C7.2872 19.8261 5.94575 20.9184 5.79075 22.4841C5.62126 24.2094 7.04528 25.5398 8.56636 25.5684ZM28.3216 22.7407C28.3216 24.3435 29.6153 25.5755 31.2914 25.5726C32.8168 25.5698 34.0974 24.275 34.0959 22.7365C34.093 21.1651 32.8023 19.8989 31.1972 19.896C29.624 19.8932 28.3216 21.1808 28.3216 22.7407ZM2.87751 18.4701V17.0655H1.46218V18.4701H2.87751Z" fill="white"/>
<path d="M23.5522 21.3106H12.7365C12.4164 20.4322 11.8789 19.7121 11.0807 19.203C10.3158 18.7168 9.47418 18.453 8.55719 18.4758C6.94773 18.5157 5.26585 19.4768 4.60382 21.3163C4.3025 21.3163 3.99683 21.3163 3.68972 21.3163C3.19573 21.3163 2.70174 21.3191 2.2092 21.3163C1.75722 21.3134 1.45445 21.0125 1.44865 20.5662C1.44576 20.3495 1.44865 20.1313 1.44865 19.8975H1.66016C2.26859 19.8975 2.87557 19.9003 3.48401 19.8975C4.02725 19.8946 4.33726 19.588 4.33726 19.0576C4.33871 18.1992 4.33871 17.3408 4.33726 16.4824C4.33726 15.9391 4.0287 15.6382 3.47242 15.6353C2.86978 15.6325 2.26859 15.6353 1.66595 15.6353C1.60076 15.6353 1.53557 15.6353 1.4472 15.6353V15.4357C1.4472 11.0125 1.4472 6.59067 1.4472 2.16743C1.4472 1.72254 1.71665 1.44734 2.16718 1.4288C2.23962 1.42595 2.31205 1.42737 2.38448 1.42737C9.16852 1.42737 15.9525 1.43023 22.738 1.4231C23.2784 1.4231 23.5145 1.72967 23.5522 2.19167C23.5565 2.24443 23.5522 2.29862 23.5522 2.35138C23.5522 8.59695 23.5522 14.844 23.5522 21.0895C23.5522 21.1594 23.5522 21.2293 23.5522 21.3148V21.3106ZM15.376 5.68663C16.8319 5.68663 18.2892 5.68663 19.7451 5.6852C19.8697 5.6852 19.9986 5.6738 20.1189 5.64385C20.4347 5.564 20.6694 5.25315 20.6592 4.94657C20.6491 4.6457 20.4014 4.36622 20.0812 4.30062C19.9812 4.28066 19.8784 4.2664 19.7784 4.2664C16.8594 4.26498 13.9404 4.26355 11.0228 4.26783C10.875 4.26783 10.72 4.29064 10.581 4.3377C10.1608 4.48172 9.99425 4.94942 10.2159 5.32587C10.3796 5.60392 10.649 5.6852 10.9518 5.6852C12.4265 5.6852 13.9013 5.6852 15.3745 5.6852L15.376 5.68663ZM16.8174 8.52851C17.7981 8.52851 18.7789 8.52851 19.7596 8.52708C19.8726 8.52708 19.9885 8.51568 20.0986 8.49001C20.426 8.41301 20.6665 8.10643 20.6592 7.7913C20.652 7.48615 20.3999 7.20667 20.0667 7.14108C19.9726 7.12254 19.8769 7.10828 19.7813 7.10828C17.8199 7.10686 15.8584 7.10543 13.8969 7.10971C13.7549 7.10971 13.6072 7.13395 13.4739 7.17958C13.0538 7.3236 12.8858 7.78845 13.1045 8.16632C13.2668 8.44723 13.5362 8.52708 13.839 8.52708C14.8313 8.52993 15.8251 8.52708 16.8174 8.52708V8.52851ZM7.94585 5.68663C8.33264 5.68663 8.66728 5.35153 8.66294 4.96796C8.66004 4.6072 8.31236 4.27211 7.93571 4.26925C7.55906 4.2664 7.22877 4.59437 7.22587 4.97366C7.22298 5.35866 7.55327 5.68663 7.94441 5.68663H7.94585Z" fill="#6FCF97"/>
<path d="M35.5441 17.0541C35.5441 17.5218 35.5441 17.9653 35.5441 18.4087C35.5441 19.1246 35.5426 19.8418 35.5441 20.5576C35.5441 20.8029 35.4572 21.0054 35.2529 21.1893C34.459 19.4411 33.0886 18.5171 31.1561 18.4815C29.3786 18.4501 27.733 19.6379 27.1492 21.3062H25.0124V8.52846H25.1964C27.1289 8.52846 29.0599 8.52989 30.9924 8.52704C31.3213 8.52704 31.5588 8.64824 31.7066 8.94056C31.8718 9.2671 32.0441 9.59078 32.231 9.95012C32.1325 9.95012 32.0702 9.95012 32.0079 9.95012C30.4796 9.95012 28.9513 9.95012 27.4215 9.95012C27.3679 9.95012 27.3128 9.95012 27.2592 9.95012C26.7479 9.96723 26.4422 10.2667 26.4422 10.7715C26.4393 12.618 26.4408 14.4646 26.4422 16.3112C26.4422 16.7347 26.7435 17.0256 27.2013 17.0527C27.2607 17.057 27.3215 17.0527 27.3824 17.0527C30.0189 17.0527 32.654 17.0527 35.2906 17.0527H35.5455L35.5441 17.0541Z" fill="#6FCF97"/>
<path d="M35.0994 15.6225H27.8996V11.3789C27.959 11.3761 28.0169 11.3704 28.0749 11.3704C29.6394 11.3704 31.2025 11.3718 32.7671 11.3661C32.909 11.3661 32.9757 11.4103 33.038 11.5343C33.7014 12.8519 34.3722 14.1652 35.0414 15.4813C35.0617 15.5227 35.0762 15.5655 35.1008 15.6225H35.0994Z" fill="#6FCF97"/>
<path d="M8.56589 25.5683C7.04481 25.5398 5.61933 24.2109 5.79027 22.4841C5.94528 20.9184 7.28673 19.8261 8.79333 19.9017C10.5607 19.9901 11.6399 21.4403 11.5516 22.8847C11.4559 24.4604 10.1087 25.6625 8.56589 25.5683ZM8.67454 24.1595C9.46695 24.1595 10.1159 23.5065 10.1174 22.7094C10.1188 21.9465 9.44377 21.3134 8.63687 21.3191C7.86764 21.3248 7.22734 21.9707 7.22734 22.7407C7.22734 23.5236 7.87778 24.161 8.67454 24.1595Z" fill="#6FCF97"/>
<path d="M28.3212 22.7407C28.3212 21.1808 29.6221 19.8931 31.1967 19.896C32.8018 19.8989 34.0926 21.1651 34.0955 22.7365C34.0984 24.275 32.8178 25.5698 31.2909 25.5726C29.6148 25.5755 28.3212 24.3421 28.3212 22.7407ZM29.7655 22.7407C29.7655 23.5164 30.413 24.1581 31.1967 24.1595C32.0036 24.1595 32.6555 23.5236 32.6555 22.7293C32.6555 21.9465 31.9978 21.3191 31.175 21.3191C30.4087 21.3191 29.7655 21.9679 29.7655 22.7407Z" fill="#6FCF97"/>
<path d="M2.877 18.4701H1.46167V17.0656H2.877V18.4701Z" fill="#6FCF97"/>
<path d="M15.376 5.68658C13.9012 5.68658 12.4265 5.68658 10.9532 5.68658C10.649 5.68658 10.381 5.60531 10.2173 5.32725C9.99567 4.9508 10.1623 4.4831 10.5824 4.33908C10.7214 4.29202 10.8764 4.26921 11.0242 4.26921C13.9432 4.26493 16.8608 4.26636 19.7799 4.26778C19.8813 4.26778 19.9841 4.28204 20.0826 4.30201C20.4028 4.3676 20.6505 4.64708 20.6606 4.94795C20.6708 5.2531 20.4361 5.56538 20.1203 5.64523C20.0001 5.67518 19.8711 5.68658 19.7465 5.68658C18.2906 5.68944 16.8333 5.68801 15.3774 5.68801L15.376 5.68658Z" fill="white"/>
<path d="M16.8174 8.5285C15.825 8.5285 14.8313 8.5285 13.8389 8.5285C13.5362 8.5285 13.2667 8.44723 13.1045 8.16774C12.8843 7.78845 13.0538 7.32502 13.4739 7.181C13.6072 7.13537 13.7549 7.11255 13.8969 7.11113C15.8584 7.10685 17.8198 7.10828 19.7813 7.1097C19.8769 7.1097 19.9725 7.12396 20.0667 7.1425C20.3999 7.20809 20.6519 7.48757 20.6592 7.79272C20.6664 8.10785 20.426 8.41443 20.0986 8.49143C19.9885 8.5171 19.8726 8.5285 19.7596 8.5285C18.7788 8.53136 17.7981 8.52993 16.8174 8.52993V8.5285Z" fill="white"/>
<path d="M7.94587 5.68658C7.55473 5.68658 7.22299 5.35862 7.22734 4.97362C7.23023 4.59289 7.56053 4.26493 7.93718 4.26921C8.31238 4.27206 8.66005 4.60715 8.6644 4.96791C8.6673 5.35149 8.33266 5.68658 7.94732 5.68658H7.94587Z" fill="white"/>
<path d="M8.6745 24.1581C7.87774 24.1581 7.22729 23.5207 7.22729 22.7393C7.22729 21.9693 7.8676 21.3234 8.63683 21.3177C9.44373 21.312 10.1188 21.9451 10.1174 22.7079C10.1159 23.5065 9.46836 24.1567 8.6745 24.1581Z" fill="white"/>
<path d="M29.7654 22.7407C29.7654 21.9679 30.4086 21.3191 31.1749 21.3191C31.9978 21.3191 32.6569 21.9465 32.6554 22.7293C32.6554 23.5222 32.0035 24.161 31.1966 24.1595C30.4129 24.1595 29.7654 23.5165 29.7654 22.7407Z" fill="white"/>
</g>
<defs>
<clipPath id="clip0_1583_4485">
<rect width="37" height="27" fill="white"/>
</clipPath>
</defs>
</svg>
